<?xml version="1.0" encoding="utf-8"?>
<!-- Generator: Adobe Illustrator 27.5.0, SVG Export Plug-In . SVG Version: 6.00 Build 0)  -->
<svg version="1.1" xmlns="http://www.w3.org/2000/svg" xmlns:xlink="http://www.w3.org/1999/xlink" x="0px" y="0px"
	 viewBox="0 0 500 500" style="enable-background:new 0 0 500 500;" xml:space="preserve">
<g id="Background_Complete">
	<g>
		<rect y="382.398" style="fill:#EBEBEB;" width="500" height="0.25"/>
		<rect x="416.779" y="398.494" style="fill:#EBEBEB;" width="33.122" height="0.25"/>
		<rect x="322.527" y="401.208" style="fill:#EBEBEB;" width="8.693" height="0.25"/>
		<rect x="396.586" y="389.208" style="fill:#EBEBEB;" width="19.192" height="0.25"/>
		<rect x="52.459" y="390.888" style="fill:#EBEBEB;" width="43.193" height="0.25"/>
		<rect x="104.556" y="390.888" style="fill:#EBEBEB;" width="6.333" height="0.25"/>
		<rect x="131.471" y="395.111" style="fill:#EBEBEB;" width="93.676" height="0.25"/>
		<path style="fill:#EBEBEB;" d="M237.014,337.8H43.915c-3.147,0-5.708-2.561-5.708-5.708V60.66c0-3.147,2.561-5.708,5.708-5.708
			h193.099c3.146,0,5.707,2.561,5.707,5.708v271.432C242.721,335.239,240.16,337.8,237.014,337.8z M43.915,55.203
			c-3.01,0-5.458,2.448-5.458,5.458v271.432c0,3.01,2.448,5.458,5.458,5.458h193.099c3.009,0,5.457-2.448,5.457-5.458V60.66
			c0-3.009-2.448-5.458-5.457-5.458H43.915z"/>
		<path style="fill:#EBEBEB;" d="M453.31,337.8H260.212c-3.147,0-5.707-2.561-5.707-5.708V60.66c0-3.147,2.561-5.708,5.707-5.708
			H453.31c3.148,0,5.708,2.561,5.708,5.708v271.432C459.019,335.239,456.458,337.8,453.31,337.8z M260.212,55.203
			c-3.009,0-5.457,2.448-5.457,5.458v271.432c0,3.01,2.448,5.458,5.457,5.458H453.31c3.01,0,5.458-2.448,5.458-5.458V60.66
			c0-3.009-2.448-5.458-5.458-5.458H260.212z"/>
	</g>
	<g>
		<g>
			<g>
				<polygon style="fill:#E0E0E0;" points="439.363,138.802 407.938,120.52 383.726,120.52 351.779,137.936 351.779,256.423 
					439.363,256.423 				"/>
			</g>
			<g>
				<g>
					<g>
						<path style="fill:#FAFAFA;" d="M350.878,138.802l0.901-0.866c11.686-11.231,27.079-17.416,43.341-17.416c0.001,0,0,0,0,0
							c16.262,0,31.656,6.186,43.341,17.416l0.901,0.866v117.621h-88.486V138.802z M433.494,141.32
							c-10.471-9.638-24.049-14.931-38.373-14.931c-14.325,0-27.902,5.293-38.373,14.931v109.232h76.747V141.32z"/>
					</g>
				</g>
				<polygon style="fill:#F0F0F0;" points="397.322,251.259 392.919,251.259 392.919,211.937 355.635,211.937 355.635,207.535 
					392.919,207.535 392.919,167.316 355.635,167.316 355.635,162.914 392.919,162.914 392.919,125.63 397.322,125.63 
					397.322,162.914 434.605,162.914 434.605,167.316 397.322,167.316 397.322,207.535 434.605,207.535 434.605,211.937 
					397.322,211.937 				"/>
				<g>
					<path style="fill:#F0F0F0;" d="M347.943,137.604l0.859-0.86c25.54-25.539,67.097-25.539,92.637,0l0.859,0.86v121.754h-94.356
						V137.604z M436.428,140.052c-23.027-22.13-59.59-22.129-82.616,0v113.436h82.616V140.052z"/>
				</g>
			</g>
		</g>
		<g>
			<path style="fill:#E6E6E6;" d="M75.406,149.188c0,0-0.855-5.636,3.256-9.25c4.111-3.614,3.749-5.763,2.575-6.044
				c-1.174-0.28-2.259,3.333-4.065,4.327c0,0-0.057-5.15,1.778-7.047c1.836-1.897,2.799-6.785,1.052-6.871
				c-1.747-0.086-1.927,2.903-2.289,5.022c-0.361,2.119-2.307,5.101-2.307,5.101s-0.38-4.608-1.566-6.505
				c-1.186-1.897,1.976-6.234,0.756-8.131c-1.22-1.897-3.388,1.717-3.207,5.782c0.181,4.065,2.891,8.402,2.259,12.648
				c0,0-1.196-2.981-2.269-3.252c-1.074-0.271-2.158-2.243-2.88-2.974c-0.723-0.731-1.626,1.799,0,4.148
				c1.626,2.349,5.782,8.633,5.15,13.713L75.406,149.188z"/>
			<path style="fill:#E6E6E6;" d="M77.863,146.624l1.346,8.447c0.416,2.609-1.6,4.971-4.242,4.971h-1.436
				c-2.642,0-4.658-2.362-4.242-4.971l1.346-8.447H77.863z"/>
			
				<rect x="57.503" y="156.925" transform="matrix(-1 -1.224647e-16 1.224647e-16 -1 210.1587 318.7395)" style="fill:#E0E0E0;" width="95.153" height="4.889"/>
			
				<rect x="144.084" y="138.904" transform="matrix(-1 -1.224647e-16 1.224647e-16 -1 292.3602 295.8295)" style="fill:#EBEBEB;" width="4.192" height="18.021"/>
			
				<rect x="123.814" y="138.904" transform="matrix(-1 -1.224647e-16 1.224647e-16 -1 251.8201 295.8295)" style="fill:#EBEBEB;" width="4.192" height="18.021"/>
			
				<rect x="99.242" y="138.679" transform="matrix(-0.9855 -0.1698 0.1698 -0.9855 176.1232 310.4434)" style="fill:#EBEBEB;" width="4.192" height="18.021"/>
			
				<rect x="138.89" y="141.279" transform="matrix(-1 -1.224647e-16 1.224647e-16 -1 281.9715 298.2044)" style="fill:#EBEBEB;" width="4.192" height="15.646"/>
			
				<rect x="129.254" y="141.279" transform="matrix(-1 -1.224647e-16 1.224647e-16 -1 262.7008 298.2044)" style="fill:#EBEBEB;" width="4.192" height="15.646"/>
			
				<rect x="104.934" y="141.279" transform="matrix(-1 -1.224647e-16 1.224647e-16 -1 214.0596 298.2044)" style="fill:#EBEBEB;" width="4.192" height="15.646"/>
			
				<rect x="116.561" y="141.011" transform="matrix(-0.9762 -0.2169 0.2169 -0.9762 202.2095 319.8603)" style="fill:#EBEBEB;" width="4.192" height="15.646"/>
			
				<rect x="135.265" y="138.01" transform="matrix(-1 -1.224647e-16 1.224647e-16 -1 272.6259 294.9348)" style="fill:#EBEBEB;" width="2.096" height="18.916"/>
			
				<rect x="110.331" y="138.01" transform="matrix(-1 -1.224647e-16 1.224647e-16 -1 222.7577 294.9348)" style="fill:#EBEBEB;" width="2.096" height="18.916"/>
		</g>
		<g>
			<rect x="57.503" y="193.423" style="fill:#E0E0E0;" width="95.153" height="4.889"/>
			<rect x="61.882" y="175.401" style="fill:#EBEBEB;" width="4.192" height="18.021"/>
			<rect x="82.152" y="175.401" style="fill:#EBEBEB;" width="4.192" height="18.021"/>
			
				<rect x="106.725" y="175.176" transform="matrix(0.9855 -0.1699 0.1699 0.9855 -29.7031 21.1596)" style="fill:#EBEBEB;" width="4.192" height="18.021"/>
			<rect x="67.077" y="177.776" style="fill:#EBEBEB;" width="4.192" height="15.646"/>
			<rect x="76.712" y="177.776" style="fill:#EBEBEB;" width="4.192" height="15.646"/>
			<rect x="101.033" y="177.776" style="fill:#EBEBEB;" width="4.192" height="15.646"/>
			
				<rect x="89.405" y="177.508" transform="matrix(0.9762 -0.2169 0.2169 0.9762 -38.0175 24.2567)" style="fill:#EBEBEB;" width="4.192" height="15.646"/>
			<rect x="72.798" y="174.507" style="fill:#EBEBEB;" width="2.096" height="18.916"/>
			<rect x="97.732" y="174.507" style="fill:#EBEBEB;" width="2.096" height="18.916"/>
			<rect x="123.1" y="179.159" style="fill:#EBEBEB;" width="20.426" height="14.102"/>
		</g>
		<g>
			<circle style="fill:#E0E0E0;" cx="246.397" cy="110.376" r="18.788"/>
			<circle style="fill:#F0F0F0;" cx="246.397" cy="110.376" r="15.975"/>
			
				<polyline style="fill:#F0F0F0;stroke:#E0E0E0;stroke-width:1.5953;stroke-linecap:round;stroke-linejoin:round;stroke-miterlimit:10;" points="
				245.643,99.418 245.643,110.585 238.243,106.397 			"/>
		</g>
	</g>
</g>
<g id="Background_Simple" style="display:none;">
	<g style="display:inline;">
		<path style="fill:#407BFF;" d="M244.906,92.017c-75.764,34.088-6.987,94.842-50.733,127.93
			c-43.746,33.088-162.687-5.164-117.345,80.757c53.26,100.926,286.491,86.911,336.778-36.881
			C463.893,140.03,320.67,57.929,244.906,92.017z"/>
		<path style="opacity:0.9;fill:#FFFFFF;" d="M244.906,92.017c-75.764,34.088-6.987,94.842-50.733,127.93
			c-43.746,33.088-162.687-5.164-117.345,80.757c53.26,100.926,286.491,86.911,336.778-36.881
			C463.893,140.03,320.67,57.929,244.906,92.017z"/>
	</g>
</g>
<g id="Shadow_1_">
	<ellipse id="_x3C_Path_x3E__359_" style="fill:#F5F5F5;" cx="250" cy="416.238" rx="193.889" ry="11.323"/>
</g>
<g id="Whiteboard">
	<g>
		<g>
			<polygon style="fill:#2E353A;" points="309.795,413.071 309.795,282.221 300.855,282.221 300.855,413.071 295.166,414.819 
				295.166,417.524 315.484,417.524 315.484,414.819 			"/>
			<polygon style="fill:#2E353A;" points="196.012,282.221 187.072,282.221 187.072,413.071 181.383,414.819 181.383,417.524 
				201.702,417.524 201.702,414.819 196.012,413.071 			"/>
		</g>
		<g style="opacity:0.2;enable-background:new    ;">
			<polygon style="fill:#FFFFFF;" points="309.795,292.787 300.855,292.787 300.855,413.071 295.166,414.819 295.166,417.524 
				315.484,417.524 315.484,414.819 309.795,413.071 			"/>
			<polygon style="fill:#FFFFFF;" points="196.012,292.787 187.072,292.787 187.072,413.071 181.383,414.819 181.383,417.524 
				201.702,417.524 201.702,414.819 196.012,413.071 			"/>
		</g>
		
			<rect x="176.101" y="124.145" transform="matrix(-1.836970e-16 1 -1 -1.836970e-16 461.5728 -35.2946)" style="fill:#2E353A;" width="144.666" height="177.988"/>
		
			<rect x="176.101" y="124.145" transform="matrix(-1.836970e-16 1 -1 -1.836970e-16 461.5728 -35.2946)" style="opacity:0.2;fill:#FFFFFF;enable-background:new    ;" width="144.666" height="177.988"/>
		<g>
			<rect x="163.396" y="144.822" style="fill:#407BFF;" width="170.075" height="136.557"/>
			<rect x="163.396" y="144.822" style="opacity:0.3;fill:#FFFFFF;enable-background:new    ;" width="170.075" height="136.557"/>
		</g>
		<rect x="163.396" y="144.822" style="opacity:0.6;fill:#FFFFFF;enable-background:new    ;" width="170.075" height="136.557"/>
		<g style="opacity:0.4;">
			<path style="fill:none;stroke:#000000;stroke-linecap:round;stroke-linejoin:round;stroke-miterlimit:10;" d="M246.432,151.094
				c2.048,17.795,1.388,29.785,0,47.644c-0.296,3.805,1.378,13.37,1.079,17.175c-0.382,4.87-0.369,9.762-0.354,14.648
				c0.043,15.001,0.087,30.001,0.13,45.002"/>
			<path style="fill:none;stroke:#000000;stroke-linecap:round;stroke-linejoin:round;stroke-miterlimit:10;" d="M174.088,169.524
				c-0.28,3.259-0.561,6.518-0.841,9.777"/>
			<path style="fill:none;stroke:#000000;stroke-linecap:round;stroke-linejoin:round;stroke-miterlimit:10;" d="M176.297,167.821
				c0.245,0.072,0.415,0.289,0.557,0.501c1.751,2.604,1.719,5.973,1.623,9.109c-0.019,0.611-0.038,1.229-0.21,1.816
				c-0.487,1.667-2.065,2.737-3.534,3.666"/>
			<path style="fill:none;stroke:#000000;stroke-linecap:round;stroke-linejoin:round;stroke-miterlimit:10;" d="M184.464,175.495
				c1.318-0.629,2.635-1.257,3.953-1.886c-0.274,1.32,1.569,2.249,2.801,1.701s1.882-1.88,2.433-3.111
				c0.208,0.731,0.415,1.462,0.622,2.193c1.362,0.384,2.856,0.282,4.153-0.284c0.049,0.701,0.912,1.067,1.606,0.961
				c0.694-0.106,1.308-0.508,1.989-0.681c1.355-0.344,2.745,0.249,4.102,0.585c1.357,0.336,3.06,0.285,3.822-0.888
				c0.587,1.582,2.679,1.838,4.367,1.831c6.242-0.026,12.485-0.051,18.727-0.077"/>
			<path style="fill:none;stroke:#000000;stroke-linecap:round;stroke-linejoin:round;stroke-miterlimit:10;" d="M183.68,194.612
				c0.776,0.776,2.512-0.325,3.056,0.628c0.208,0.365,0.099,0.896,0.424,1.162c0.358,0.293,0.898-0.012,1.186-0.374
				c0.289-0.362,0.547-0.823,1.001-0.914c0.608-0.122,1.091,0.488,1.666,0.721c0.974,0.395,1.996-0.334,2.974-0.718
				c2.611-1.026,5.49,0.443,8.293,0.553c1.641,0.064,3.26-0.344,4.851-0.749"/>
			<path style="fill:none;stroke:#000000;stroke-linecap:round;stroke-linejoin:round;stroke-miterlimit:10;" d="M215.136,192.478
				c0.403-0.869,0.941-1.732,1.782-2.19c1.439-0.783,3.426,0.006,4.136,1.482c0.71,1.477,0.222,3.363-0.96,4.497
				c-0.871,0.835-2.212,1.721-1.824,2.864"/>
			<path style="fill:none;stroke:#000000;stroke-linecap:round;stroke-linejoin:round;stroke-miterlimit:10;" d="M218.558,202.517
				c-0.286,0.359-0.486,0.787-0.576,1.237c0.356,0.183,0.817,0.137,1.131-0.111"/>
			<path style="fill:none;stroke:#000000;stroke-linecap:round;stroke-linejoin:round;stroke-miterlimit:10;" d="M172.998,222.962
				c0.551-0.266,1.196-0.329,1.788-0.175c0.215,1.435,0.395,3.029-0.434,4.22c-0.641,0.92-1.825,1.487-2.106,2.573
				c0.942,0.11,1.894,0.135,2.84,0.074"/>
			<path style="fill:none;stroke:#000000;stroke-linecap:round;stroke-linejoin:round;stroke-miterlimit:10;" d="M177.421,221.743
				c1.635,1.019,2.487,3.048,2.361,4.97c-0.126,1.922-1.126,3.715-2.488,5.078"/>
			<path style="fill:none;stroke:#000000;stroke-linecap:round;stroke-linejoin:round;stroke-miterlimit:10;" d="M184.581,228.481
				c0.474-0.545,0.949-1.089,1.423-1.634c0.825,1.385,3.251,1.276,3.947-0.178c-0.009,1.177,1.525,1.838,2.641,1.462
				s1.88-1.374,2.642-2.271c0.762-0.897,1.709-1.8,2.885-1.853c0.069,1.263,0.138,2.526,0.207,3.789
				c0.481-0.893,1.131-1.693,1.906-2.347c0.356,0.685,0.598,1.429,0.715,2.192c0.676-0.93,1.352-1.86,2.028-2.791
				c0.544,0.812,0.905,1.747,1.048,2.714c0.828-0.258,1.602-0.685,2.263-1.247c0.295,0.452,0.583,0.908,0.865,1.368
				c-0.48-0.78,0.648-1.762,1.513-1.461c0.865,0.301,1.283,1.288,1.401,2.196c3.391,0.008,6.77-1.232,9.352-3.431
				c0.067,1.227,0.133,2.455,0.2,3.682c4.933,0.136,9.879-0.182,14.755-0.947"/>
			<path style="fill:none;stroke:#000000;stroke-linecap:round;stroke-linejoin:round;stroke-miterlimit:10;" d="M184.552,243.331
				c0.269,0.527,0.537,1.054,0.806,1.581c1.395-0.523,2.691-1.308,3.8-2.302c0.313,0.654,0.678,1.283,1.091,1.879
				c0.12-0.348,0.582-0.435,0.943-0.361c0.361,0.074,0.712,0.25,1.077,0.208c0.318-0.036,0.592-0.232,0.863-0.404
				c0.867-0.549,1.859-0.901,2.878-1.022c0.318-0.038,0.668-0.045,0.928,0.141c0.212,0.152,0.324,0.404,0.469,0.622
				c0.719,1.079,2.51,1.189,3.355,0.206"/>
			<path style="fill:none;stroke:#000000;stroke-linecap:round;stroke-linejoin:round;stroke-miterlimit:10;" d="M207.898,241.375
				c-0.559-0.919,0.224-2.108,1.149-2.656c1.089-0.645,2.499-0.844,3.631-0.276c1.132,0.567,1.833,2,1.366,3.177
				c-0.477,1.202-1.884,1.759-2.593,2.84c-0.494,0.753-0.602,1.746-0.281,2.587"/>
			<path style="fill:none;stroke:#000000;stroke-linecap:round;stroke-linejoin:round;stroke-miterlimit:10;" d="M211.904,250.07
				c-0.369,0.213-0.744,0.464-0.935,0.844c-0.191,0.381-0.124,0.923,0.249,1.13c0.373,0.206,0.946-0.195,0.779-0.587"/>
			<path style="fill:none;stroke:#000000;stroke-linecap:round;stroke-linejoin:round;stroke-miterlimit:10;" d="M256.662,171.813
				c0.534-0.425,1.43-0.129,1.701,0.497c0.271,0.626-0.036,1.408-0.605,1.785c-0.323,0.214-0.708,0.315-1.036,0.521
				c-0.328,0.206-0.607,0.581-0.513,0.956c0.152,0.607,1.07,0.674,1.356,1.231c0.343,0.667-0.438,1.339-1.103,1.687
				c-0.527,0.276-1.054,0.551-1.581,0.827c-0.267,0.14-0.566,0.486-0.335,0.68"/>
			<path style="fill:none;stroke:#000000;stroke-linecap:round;stroke-linejoin:round;stroke-miterlimit:10;" d="M259.475,169.206
				c1.355,2.239,2.763,4.71,2.416,7.304c-0.305,2.285-1.911,4.151-3.447,5.87c-0.453,0.508-0.992,1.056-1.673,1.057"/>
			<path style="fill:none;stroke:#000000;stroke-linecap:round;stroke-linejoin:round;stroke-miterlimit:10;" d="M269.206,176.254
				c-0.055-0.763,0.636-1.531,1.397-1.449c0.76,0.082,1.258,1.12,0.771,1.71c0.312-0.397,0.625-0.795,0.937-1.192
				c0.391,0.698,0.782,1.397,1.172,2.095c0.397-0.836,1.276-1.827,2.044-1.311c0.378,0.254,0.532,0.814,0.973,0.929
				c0.418,0.109,0.797-0.257,1.076-0.587c1.548-1.834,3.096-3.667,4.644-5.501c-0.148,2.148,0.145,4.326,0.856,6.359
				c1.85-0.764,3.546-1.899,4.958-3.317c0.664,0.319,0.133,1.531,0.712,1.986c0.748,0.586,1.668-1.009,2.577-0.73
				c0.336,0.103,0.54,0.438,0.83,0.636c0.411,0.281,0.949,0.263,1.445,0.235c1.703-0.097,3.406-0.195,5.11-0.293"/>
			<path style="fill:none;stroke:#000000;stroke-linecap:round;stroke-linejoin:round;stroke-miterlimit:10;" d="M303.48,175.812
				c0.817-0.128,1.634-0.255,2.451-0.382c0.179-0.028,0.389-0.047,0.516,0.082c0.119,0.12,0.11,0.311,0.157,0.474
				c0.148,0.518,0.827,0.66,1.358,0.571c0.531-0.09,1.072-0.313,1.59-0.165"/>
			<path style="fill:none;stroke:#000000;stroke-linecap:round;stroke-linejoin:round;stroke-miterlimit:10;" d="M316.758,173.068
				c-0.26-0.595,0.084-1.287,0.537-1.752c0.867-0.891,2.236-1.326,3.413-0.922c1.176,0.404,2.015,1.723,1.72,2.931
				c-0.316,1.294-1.658,2.034-2.404,3.137c-0.605,0.895-0.797,2.059-0.511,3.101"/>
			<path style="fill:none;stroke:#000000;stroke-linecap:round;stroke-linejoin:round;stroke-miterlimit:10;" d="M319.386,182.619
				c-0.073,0.279-0.258,0.515-0.349,0.788c-0.091,0.273-0.042,0.639,0.222,0.754s0.579-0.321,0.329-0.463"/>
			<path style="fill:none;stroke:#000000;stroke-linecap:round;stroke-linejoin:round;stroke-miterlimit:10;" d="M257.866,203.406
				c-0.904,2.052-2.22,3.921-3.848,5.462c1.856,0.016,3.714-0.315,5.451-0.97"/>
			<path style="fill:none;stroke:#000000;stroke-linecap:round;stroke-linejoin:round;stroke-miterlimit:10;" d="M258.559,205.14
				c0,1.912,0,3.824,0,5.736"/>
			<path style="fill:none;stroke:#000000;stroke-linecap:round;stroke-linejoin:round;stroke-miterlimit:10;" d="M259.953,201.743
				c0.096,1.158,0.735,2.189,1.174,3.265c1.146,2.814,0.88,6.164-0.696,8.762c-0.2,0.329-0.497,0.686-0.88,0.648"/>
			<path style="fill:none;stroke:#000000;stroke-linecap:round;stroke-linejoin:round;stroke-miterlimit:10;" d="M266.178,208.538
				c2.243-0.967,4.29-2.389,5.979-4.154c-0.36,1.322,1.735,2.43,2.625,1.39c0.244,0.662,0.488,1.324,0.732,1.986
				c1.387-0.435,2.736-0.991,4.026-1.659c0.103,0.477,0.207,0.954,0.31,1.432c1.257-1.153,2.515-2.306,3.772-3.459
				c0.521,0.664,0.866,1.463,0.994,2.297c0.644,0.164,1.368-0.034,1.839-0.503c0.159,0.374,0.603,0.521,1,0.606
				c2.171,0.463,4.473,0.291,6.552-0.489c0.734-0.275,1.512-0.632,2.271-0.435c0.469,0.122,0.864,0.443,1.327,0.587
				c1.029,0.321,2.105-0.286,3.181-0.339c1.076-0.053,2.31,1.214,1.529,1.957c0.887,0.531,2.06-1.033,2.908-0.442
				c0.276,0.192,0.412,0.577,0.735,0.671c0.328,0.096,0.641-0.16,0.915-0.364c2.993-2.226,7.663,0.569,10.86-1.352"/>
			<path style="fill:none;stroke:#000000;stroke-linecap:round;stroke-linejoin:round;stroke-miterlimit:10;" d="M267.687,222.529
				c0.162,0.23,0.324,0.459,0.486,0.689c1.103-0.698,2.07-1.611,2.83-2.673c0.328,0.198,0.579,0.52,0.69,0.887
				c0.776-0.274,1.551-0.549,2.327-0.823c0.085,0.538,0.455,1.249,0.954,1.03c0.237-0.104,0.353-0.397,0.594-0.491
				c0.319-0.125,0.651,0.16,0.824,0.457c0.172,0.296,0.303,0.652,0.607,0.81c0.309,0.161,0.687,0.056,1.008-0.081
				c1.427-0.608,2.754-1.824,4.286-1.582"/>
			<path style="fill:none;stroke:#000000;stroke-linecap:round;stroke-linejoin:round;stroke-miterlimit:10;" d="M290.024,218.004
				c-0.153-0.372,0.064-0.818,0.403-1.034c0.339-0.216,0.764-0.246,1.165-0.218c1.186,0.084,2.466,0.824,2.604,2.005
				c0.107,0.912-0.5,1.764-1.215,2.341c-0.714,0.577-1.56,0.984-2.233,1.609c-0.673,0.625-1.164,1.583-0.874,2.454"/>
			<path style="fill:none;stroke:#000000;stroke-linecap:round;stroke-linejoin:round;stroke-miterlimit:10;" d="M290.588,230.504
				c-0.198-0.066-0.395-0.132-0.593-0.199"/>
			<path style="fill:none;stroke:#000000;stroke-linecap:round;stroke-linejoin:round;stroke-miterlimit:10;" d="M257.175,244.701
				c-1.007-0.004-2.014-0.009-3.021-0.013c-0.187,1.542-0.22,3.102-0.1,4.65c0.463-0.376,0.953-0.764,1.54-0.868
				c0.587-0.104,1.29,0.191,1.424,0.772c0.133,0.575-0.319,1.112-0.769,1.494c-0.632,0.538-1.424,1.018-2.243,0.882"/>
			<path style="fill:none;stroke:#000000;stroke-linecap:round;stroke-linejoin:round;stroke-miterlimit:10;" d="M258.584,243.286
				c1.118,1.218,1.439,2.958,1.564,4.606c0.111,1.454,0.102,2.943-0.33,4.337c-0.432,1.393-1.336,2.691-2.645,3.333"/>
			<path style="fill:none;stroke:#000000;stroke-linecap:round;stroke-linejoin:round;stroke-miterlimit:10;" d="M265.771,247.868
				c1.406-0.636,2.812-1.272,4.217-1.908c-0.389,0.746,0.049,1.788,0.849,2.05c0.799,0.262,1.758-0.3,1.94-1.121
				c0.422,0.583,0.636,1.314,0.593,2.033c1.589-0.647,3.079-1.535,4.405-2.622c0.302,1.011,0.603,2.022,0.905,3.034
				c1.503-0.039,2.988-0.612,4.128-1.593c0.265,0.386,0.53,0.773,0.796,1.159c1.007-0.248,2.014-0.496,3.021-0.744
				c1.181-0.291,2.957-0.157,2.961,1.059c2.08-1.555,4.996-0.975,7.51-0.325c0.56,0.145,1.257,0.483,1.167,1.055
				c1.118-0.602,2.089-1.455,3.224-2.023c2.085-1.042,4.673-1.009,6.729,0.088"/>
			<path style="fill:none;stroke:#000000;stroke-linecap:round;stroke-linejoin:round;stroke-miterlimit:10;" d="M317.109,246.283
				c0.008-0.652,0.016-1.304,0.023-1.956c1.402-0.256,2.929,0.548,3.511,1.849c0.109,0.244,0.188,0.503,0.204,0.77
				c0.054,0.888-0.585,1.673-1.299,2.203c-0.714,0.53-1.542,0.915-2.164,1.551c-0.622,0.635-0.993,1.654-0.542,2.42"/>
			<path style="fill:none;stroke:#000000;stroke-linecap:round;stroke-linejoin:round;stroke-miterlimit:10;" d="M317.109,257.558
				c-0.198-0.33-0.396-0.659-0.593-0.989"/>
		</g>
		<path style="opacity:0.2;fill:#FFFFFF;" d="M321.87,211.769c-1.469,1.843-2.692,3.891-4.323,5.714
			c-0.337,0.377-0.549,0.778-0.668,1.182c-1.187,0.167-2.489,0.013-3.811-0.58c-4.592-2.059-8.776-5.541-12.411-8.977
			c-0.772-0.73-1.574-1.424-2.372-2.123c3.59,4.005,7.172,8.015,10.805,11.983c1.205,1.316,1.671,2.782,1.623,4.188
			c-1.747,1.839-3.467,3.757-5.527,5.227c-0.37,0.264-0.676,0.588-0.919,0.945c-1.258-0.081-2.535-0.647-3.663-1.874
			c-7.769-8.444-15.462-16.735-24.049-24.31c0.688,0.966,1.387,1.922,2.053,2.91c4.502,6.688,9.329,13.116,14.365,19.41
			c3.55,4.438,9.678,9.893,10.814,15.778c-0.236,0.287-0.472,0.575-0.712,0.859c-0.315,0.373-0.644,0.734-0.981,1.087
			c-0.312,0.061-0.617,0.165-0.894,0.347c-1.507,0.991-2.467,3-1.262,4.652c0.264,0.363,0.589,0.667,0.945,0.909
			c1.827,2.302,3.617,4.633,5.33,7.028c0.093,0.129,0.171,0.26,0.25,0.39c-1.232,3.515-4.151,6.066-6.998,8.474
			c-0.96-0.228-1.882-0.732-2.675-1.593c-3.426-3.718-7.349-6.986-10.52-10.926c-3.398-4.222-6.21-8.883-9.44-13.23
			c-0.052-0.07-0.109-0.137-0.161-0.207c-3.903-4.349-7.824-8.685-11.617-13.121c-3.306-3.345-6.682-6.614-9.907-9.883
			c-5.148-5.218-10.378-10.459-15.8-15.46c1.344,1.993,2.696,3.98,4.078,5.948c6.111,8.701,12.892,16.911,19.431,25.283
			c3.221,4.125,6.171,8.446,9.297,12.64c2.46,3.3,6.151,6.315,8.091,9.942c0.428,0.8,0.669,1.587,0.76,2.344
			c-0.217,0.188-0.423,0.394-0.601,0.629c-1.48,1.951-3.77,3.416-5.915,4.52c-0.575,0.296-0.953,0.692-1.191,1.131
			c-0.851-0.243-1.693-0.681-2.477-1.352c-3.044-2.606-5.938-5.471-8.664-8.491c0.866,1.495,1.622,3.038,2.101,4.677
			c1.536,5.246-4.317,9.108-8.815,6.776c-0.132-0.068-0.258-0.145-0.389-0.215c-0.893,2.945-4.37,5.094-7.509,4.343
			c-1.739,2.313-4.784,3.529-7.506,1.448c-11.248-8.596-21.974-18.115-32.592-27.487c-0.965-0.852-1.922-1.714-2.879-2.575
			c1.835,2.86,3.758,5.615,5.94,8.376c2.439,3.087,5.837,6.316,7.127,10.158c-0.124,0.088-0.249,0.171-0.369,0.283
			c-2.746,2.576-5.055,5.454-6.843,8.774c-0.015,0.029-0.021,0.057-0.036,0.086c-4.738-1.06-9.695-4.123-13.706-6.433
			c-5.236-3.015-9.975-6.641-14.563-10.517c0.004-0.456-0.066-0.922-0.262-1.457c-0.097-0.266-0.245-0.517-0.381-0.77
			c0.011-0.282,0.024-0.562,0.028-0.847c0.403-0.828,0.713-1.606,0.937-2.407c0.728-0.367,1.375-0.885,1.8-1.579
			c0.439-0.716,0.616-1.678,0.601-2.504c-0.031-0.235-0.063-0.47-0.096-0.706c0.472-0.393,0.76-0.869,0.903-1.37
			c1.001,0.183,2.002,0.625,2.934,1.433c1.255,1.088,2.527,2.14,3.811,3.172c-1.635-2.737-3.207-5.526-4.794-8.196
			c-2.788-4.692-5.725-9.248-8.915-13.681c-2.434-3.382-5.698-6.321-6.093-10.063c2.265-1.913,3.839-4.335,5.801-6.562
			c0.105-0.119,0.193-0.248,0.28-0.377c1.86,0.035,3.793,0.875,5.698,2.099c-0.52-0.618-1.028-1.245-1.504-1.896
			c-4.3-5.887-10.368-10.635-14.263-16.763c-0.502-0.789-0.798-1.557-0.932-2.292c0.451-0.566,0.898-1.136,1.35-1.704
			c0.755-0.949,1.073-2.147,0.653-3.21c0.033-0.026,0.063-0.054,0.097-0.079c-0.158-0.191-0.32-0.378-0.477-0.569
			c-0.007-0.009-0.015-0.018-0.022-0.027c-0.662-0.812-1.107-1.775-1.356-2.775c1.911-2.8,3.993-5.445,6.605-7.433
			c3.536,0.261,6.667,2.555,9.767,4.348c2.121,1.227,4.241,2.477,6.332,3.772c-1.038-1.359-1.979-2.778-2.65-4.36
			c-0.266-0.628-0.427-1.263-0.508-1.893c0.173-0.099,0.34-0.211,0.501-0.335c2.511-1.94,5.126-3.987,7.24-6.415
			c0.322,0.118,0.647,0.257,0.977,0.434c2.025,1.083,4.008,2.352,5.952,3.735c-0.31-0.916-0.472-1.831-0.467-2.736
			c0.916,0.15,1.891-0.152,2.646-0.8c1.706-1.463,3.088-3.345,4.779-4.835c0.535,0.138,1.054,0.353,1.533,0.677
			c4.468,3.026,8.25,7.008,12.522,10.313c1.072,0.829,2.151,1.648,3.234,2.464c-0.297-0.854-0.385-1.752-0.308-2.633
			c0.398-0.107,0.793-0.301,1.168-0.602c2.048-1.649,4.055-3.35,6.078-5.03c0.48,0.177,0.969,0.433,1.46,0.778
			c1.995,1.403,3.883,3.042,5.715,4.78c0.046-0.358,0.129-0.708,0.233-1.049c0.825,0.319,1.761,0.329,2.462-0.212
			c1.625-1.254,3.289-2.428,4.73-3.851c2.365,0.632,4.006,2.354,5.916,3.794c0.33,0.248,0.658,0.498,0.988,0.747
			c0.114-0.241,0.265-0.463,0.417-0.683c0.609,0.066,1.221-0.048,1.706-0.405c0.823-0.607,1.578-1.254,2.314-1.96
			c0.102-0.098,0.207-0.194,0.312-0.29c0.832-0.143,1.671-0.146,2.44,0.06c4.377,1.175,8.295,4.194,12.053,6.845
			c-0.738-0.86-1.479-1.718-2.195-2.599c-2.743-3.373-6.767-7.029-8.162-11.293c0.173-0.172,0.338-0.363,0.482-0.598
			c0.528-0.859,1.11-1.725,1.734-2.573c2.053-1.253,4.027-2.766,5.519-4.554c0.298,0.083,0.594,0.186,0.885,0.309
			c4.412,1.872,7.706,5.445,11.011,8.808c2.355,2.396,4.627,4.867,6.834,7.395c0.126-0.332,0.303-0.643,0.501-0.944
			c1.049,0.385,2.241,0.085,3.159-0.664c0.956-0.781,1.975-1.504,2.991-2.235c1.684,0.112,3.359,0.863,4.614,2.494
			c4.924,6.4,18.736,23.865,14.132,33.729c2.285,2.368,4.418,4.871,5.716,7.646C321.579,210.518,321.764,211.152,321.87,211.769z"/>
		<path style="opacity:0.2;fill:#FFFFFF;" d="M178.415,206.693c1.377-1.729,2.524-3.649,4.054-5.358
			c0.316-0.353,0.514-0.729,0.626-1.109c1.113-0.157,2.333-0.012,3.573,0.544c4.305,1.931,8.229,5.195,11.637,8.417
			c0.724,0.685,1.476,1.336,2.224,1.99c-3.366-3.755-6.725-7.516-10.132-11.236c-1.13-1.234-1.567-2.608-1.521-3.927
			c1.638-1.725,3.251-3.523,5.182-4.901c0.347-0.247,0.634-0.551,0.861-0.886c1.179,0.076,2.377,0.606,3.435,1.757
			c7.284,7.917,14.498,15.692,22.55,22.794c-0.645-0.906-1.301-1.802-1.925-2.729c-4.221-6.271-8.748-12.298-13.469-18.2
			c-3.329-4.161-9.075-9.276-10.139-14.794c0.222-0.269,0.443-0.539,0.667-0.806c0.295-0.35,0.604-0.688,0.92-1.019
			c0.293-0.057,0.579-0.155,0.838-0.325c1.413-0.929,2.314-2.813,1.184-4.362c-0.248-0.34-0.552-0.626-0.886-0.853
			c-1.713-2.158-3.392-4.344-4.998-6.59c-0.087-0.121-0.16-0.244-0.234-0.366c1.155-3.296,3.892-5.688,6.562-7.946
			c0.9,0.213,1.764,0.686,2.509,1.494c3.212,3.486,6.891,6.55,9.865,10.245c3.186,3.958,5.823,8.329,8.851,12.405
			c0.049,0.066,0.102,0.129,0.151,0.194c3.66,4.078,7.336,8.143,10.893,12.303c3.1,3.137,6.265,6.202,9.289,9.267
			c4.827,4.893,9.731,9.807,14.815,14.496c-1.26-1.868-2.528-3.732-3.824-5.577c-5.73-8.158-12.088-15.856-18.22-23.707
			c-3.021-3.868-5.786-7.919-8.718-11.852c-2.306-3.094-5.768-5.921-7.586-9.323c-0.401-0.75-0.627-1.488-0.712-2.198
			c0.203-0.176,0.396-0.369,0.564-0.59c1.388-1.829,3.535-3.203,5.546-4.238c0.539-0.277,0.894-0.649,1.117-1.061
			c0.798,0.228,1.587,0.639,2.322,1.268c2.854,2.443,5.568,5.13,8.124,7.962c-0.812-1.402-1.52-2.849-1.971-4.386
			c-1.44-4.919,4.048-8.54,8.265-6.354c0.124,0.064,0.242,0.136,0.364,0.202c0.838-2.762,4.097-4.776,7.041-4.072
			c1.631-2.169,4.485-3.309,7.038-1.358c10.547,8.06,20.604,16.985,30.56,25.773c0.905,0.799,1.802,1.607,2.7,2.414
			c-1.72-2.682-3.524-5.265-5.57-7.854c-2.287-2.894-5.473-5.922-6.683-9.525c0.116-0.082,0.234-0.16,0.346-0.266
			c2.575-2.415,4.74-5.114,6.417-8.227c0.015-0.027,0.02-0.054,0.034-0.081c4.443,0.993,9.091,3.866,12.852,6.032
			c4.91,2.827,9.353,6.227,13.655,9.861c-0.003,0.428,0.062,0.865,0.246,1.366c0.091,0.25,0.229,0.485,0.357,0.722
			c-0.01,0.264-0.023,0.527-0.026,0.794c-0.378,0.777-0.668,1.506-0.878,2.257c-0.683,0.344-1.289,0.83-1.688,1.48
			c-0.412,0.671-0.577,1.574-0.564,2.348c0.029,0.221,0.06,0.441,0.09,0.662c-0.443,0.369-0.713,0.814-0.846,1.284
			c-0.938-0.171-1.877-0.586-2.751-1.344c-1.177-1.02-2.369-2.007-3.574-2.974c1.534,2.567,3.007,5.181,4.495,7.685
			c2.615,4.4,5.368,8.672,8.359,12.828c2.282,3.171,5.343,5.927,5.713,9.436c-2.124,1.794-3.6,4.065-5.44,6.153
			c-0.098,0.112-0.181,0.232-0.262,0.354c-1.744-0.033-3.557-0.821-5.342-1.968c0.488,0.579,0.964,1.167,1.41,1.778
			c4.032,5.52,9.721,9.972,13.373,15.718c0.47,0.74,0.748,1.46,0.874,2.149c-0.423,0.531-0.842,1.065-1.266,1.598
			c-0.707,0.889-1.006,2.013-0.612,3.01c-0.031,0.024-0.06,0.05-0.091,0.074c0.148,0.179,0.3,0.354,0.447,0.533
			c0.006,0.009,0.014,0.017,0.02,0.025c0.62,0.761,1.038,1.664,1.272,2.602c-1.792,2.626-3.744,5.105-6.193,6.97
			c-3.315-0.244-6.251-2.396-9.158-4.077c-1.989-1.15-3.976-2.323-5.937-3.537c0.973,1.274,1.856,2.605,2.485,4.089
			c0.25,0.588,0.401,1.185,0.477,1.775c-0.162,0.093-0.319,0.198-0.469,0.314c-2.355,1.819-4.807,3.738-6.789,6.016
			c-0.302-0.111-0.607-0.241-0.916-0.407c-1.899-1.016-3.758-2.205-5.581-3.502c0.291,0.859,0.443,1.716,0.438,2.565
			c-0.859-0.14-1.773,0.143-2.481,0.75c-1.6,1.372-2.896,3.136-4.481,4.533c-0.502-0.129-0.989-0.331-1.437-0.635
			c-4.19-2.837-7.736-6.571-11.742-9.67c-1.005-0.777-2.017-1.546-3.033-2.31c0.278,0.8,0.361,1.643,0.288,2.469
			c-0.373,0.1-0.744,0.282-1.095,0.564c-1.92,1.546-3.802,3.141-5.699,4.717c-0.451-0.166-0.909-0.406-1.369-0.73
			c-1.87-1.316-3.641-2.852-5.359-4.482c-0.044,0.336-0.121,0.664-0.219,0.984c-0.773-0.299-1.651-0.308-2.309,0.199
			c-1.524,1.176-3.084,2.277-4.435,3.61c-2.217-0.592-3.756-2.207-5.548-3.557c-0.309-0.233-0.617-0.467-0.926-0.7
			c-0.107,0.226-0.249,0.434-0.391,0.641c-0.571-0.061-1.145,0.045-1.6,0.38c-0.772,0.57-1.479,1.176-2.17,1.838
			c-0.096,0.092-0.194,0.182-0.292,0.272c-0.781,0.135-1.567,0.137-2.287-0.056c-4.104-1.101-7.778-3.932-11.301-6.418
			c0.692,0.807,1.387,1.611,2.058,2.437c2.572,3.163,6.345,6.591,7.654,10.589c-0.162,0.161-0.317,0.341-0.452,0.561
			c-0.495,0.806-1.04,1.618-1.626,2.412c-1.925,1.175-3.776,2.594-5.175,4.27c-0.279-0.078-0.556-0.174-0.83-0.29
			c-4.137-1.755-7.226-5.106-10.324-8.259c-2.208-2.246-4.338-4.563-6.408-6.934c-0.118,0.311-0.284,0.603-0.469,0.885
			c-0.984-0.361-2.102-0.08-2.962,0.623c-0.896,0.732-1.852,1.41-2.805,2.096c-1.579-0.105-3.149-0.809-4.326-2.339
			c-4.617-6.001-17.568-22.377-13.251-31.626c-2.143-2.22-4.143-4.567-5.36-7.169C178.688,207.866,178.514,207.273,178.415,206.693z
			"/>
	</g>
</g>
<g id="Trash_bin">
	<g>
		<g>
			<path style="fill:#407BFF;" d="M299.756,397.525c0.814-1.367-0.334-3.424-1.925-3.447c0.697-1.961,0.009-4.332-1.629-5.616
				c-0.207-0.162-0.444-0.314-0.707-0.314c-0.282-0.001-0.531,0.171-0.76,0.335c-1.499,1.077-2.998,2.154-4.497,3.231
				c-0.343,0.246-0.698,0.507-0.892,0.882c-0.919,1.781,2.395,4.063,1.032,5.533c-0.391,0.422-1.021,0.509-1.509,0.814
				c-1.07,0.669-1.199,2.138-1.698,3.298c-0.499,1.16-2.238,2.059-2.904,0.987c0.491-1.112-0.995-2.07-2.203-2.212
				c-1.191-0.139-2.468-0.207-3.136-1.341c-1.713,1.497-5.55-2.681-5.462-4.365c-1.408,0.107-2.367,1.426-2.676,2.745
				c-0.32,1.369-0.122,2.795-0.144,4.198c-0.043,2.728-0.923,5.399-0.875,8.127c0.037,2.123,0.857,4.479,2.801,5.333
				c0.936,0.411,1.992,0.411,3.014,0.405c7.376-0.047,14.752-0.094,22.128-0.142c0.531-0.004,1.085-0.012,1.556-0.258
				c0.998-0.521,1.209-1.832,1.302-2.955c0.396-4.807,0.792-9.614,1.188-14.422C301.091,398.07,300.423,397.797,299.756,397.525z"/>
			<path style="opacity:0.3;fill:#FFFFFF;enable-background:new    ;" d="M299.756,397.525c0.814-1.367-0.334-3.424-1.925-3.447
				c0.697-1.961,0.009-4.332-1.629-5.616c-0.207-0.162-0.444-0.314-0.707-0.314c-0.282-0.001-0.531,0.171-0.76,0.335
				c-1.499,1.077-2.998,2.154-4.497,3.231c-0.343,0.246-0.698,0.507-0.892,0.882c-0.919,1.781,2.395,4.063,1.032,5.533
				c-0.391,0.422-1.021,0.509-1.509,0.814c-1.07,0.669-1.199,2.138-1.698,3.298c-0.499,1.16-2.238,2.059-2.904,0.987
				c0.491-1.112-0.995-2.07-2.203-2.212c-1.191-0.139-2.468-0.207-3.136-1.341c-1.713,1.497-5.55-2.681-5.462-4.365
				c-1.408,0.107-2.367,1.426-2.676,2.745c-0.32,1.369-0.122,2.795-0.144,4.198c-0.043,2.728-0.923,5.399-0.875,8.127
				c0.037,2.123,0.857,4.479,2.801,5.333c0.936,0.411,1.992,0.411,3.014,0.405c7.376-0.047,14.752-0.094,22.128-0.142
				c0.531-0.004,1.085-0.012,1.556-0.258c0.998-0.521,1.209-1.832,1.302-2.955c0.396-4.807,0.792-9.614,1.188-14.422
				C301.091,398.07,300.423,397.797,299.756,397.525z"/>
		</g>
		<g>
			<g>
				<path style="fill:#407BFF;" d="M301.047,374.136h-2.485h-6.841h-2.493h-6.832h-2.493h-6.833h-2.493h-3.864l0.282,3.469
					l0.202,2.476l0.524,6.446l0.299,3.703l0.395,4.929l0.169,2.114l0.056,0.629l0.202,2.485l0.274,3.404l0.17,2.114l0.177,2.146
					l0.202,2.485l0.153,1.88l0.169,2.114l0.073,0.92h4.517h3.816h5.51h3.816h5.51h3.816h4.525l0.073-0.92l0.169-2.106l0.153-1.896
					l0.202-2.485l0.178-2.138l0.169-2.114l0.274-3.412l0.202-2.477l0.049-0.629l0.169-2.114l0.403-4.929l0.299-3.695l0.516-6.454
					l0.202-2.476l0.282-3.469H301.047z M303.113,376.411L303.113,376.411l-0.662-0.662h0.718L303.113,376.411z M302.943,378.517
					l-0.064,0.839l-3.074,3.074l-3.525-3.525l3.154-3.154h0.742L302.943,378.517z M302.056,389.504l-2.251,2.251l-3.525-3.525
					l3.525-3.517l2.436,2.436L302.056,389.504z M269.384,387.148L269.384,387.148l2.436-2.436l3.525,3.517l-3.525,3.525
					l-2.243-2.251L269.384,387.148z M298.668,383.566l-3.525,3.526l-3.525-3.526l3.525-3.525L298.668,383.566z M293.125,375.749
					h4.034l-2.017,2.017L293.125,375.749z M293.997,388.229l-3.517,3.525l-3.525-3.525l3.525-3.517L293.997,388.229z
					 M282.291,392.892l3.525-3.517l3.517,3.517l-3.517,3.526L282.291,392.892z M284.671,397.555l-3.525,3.525l-3.517-3.517
					l3.525-3.525L284.671,397.555z M290.479,394.038l3.517,3.525l-3.517,3.517l-3.525-3.525L290.479,394.038z M285.817,387.092
					l-3.525-3.526l3.525-3.525l3.517,3.525L285.817,387.092z M284.671,388.229l-3.517,3.525l-3.525-3.525l3.525-3.517
					L284.671,388.229z M276.483,387.092l-3.517-3.526l3.517-3.525l3.525,3.525L276.483,387.092z M276.483,389.375l3.525,3.517
					l-3.525,3.526l-3.517-3.526L276.483,389.375z M280.008,402.226l-3.525,3.517l-3.517-3.517l3.517-3.525L280.008,402.226z
					 M281.146,403.363l3.525,3.525l-3.517,3.525l-3.525-3.525L281.146,403.363z M282.291,402.226l3.525-3.525l3.517,3.525
					l-3.517,3.517L282.291,402.226z M290.479,403.363l3.517,3.525l-3.517,3.525l-3.525-3.525L290.479,403.363z M295.142,408.026
					l3.525,3.525l-2.283,2.283H293.9l-2.283-2.283L295.142,408.026z M291.617,402.226l3.525-3.525l3.525,3.525l-3.525,3.517
					L291.617,402.226z M291.617,392.892l3.525-3.517l3.525,3.517l-3.525,3.526L291.617,392.892z M293.997,378.904l-3.517,3.525
					l-3.525-3.525l3.154-3.154h0.742L293.997,378.904z M285.817,377.766l-2.017-2.017h4.026L285.817,377.766z M284.671,378.904
					l-3.517,3.525l-3.525-3.525l3.154-3.154h0.742L284.671,378.904z M278.5,375.749l-2.017,2.017l-2.009-2.017H278.5z
					 M272.191,375.749l3.154,3.154l-3.525,3.525l-3.065-3.074l-0.065-0.839l2.759-2.767H272.191z M269.174,375.749l-0.654,0.654l0,0
					l-0.056-0.654H269.174z M268.956,381.84l1.727,1.726l-1.468,1.468L268.956,381.84z M269.916,393.659l-0.137-1.67l0,0
					l0.904,0.904L269.916,393.659L269.916,393.659z M270.086,395.78l1.734-1.742l3.525,3.525l-3.525,3.517l-1.42-1.42
					L270.086,395.78z M270.61,402.298l-0.008-0.153l0.081,0.081L270.61,402.298L270.61,402.298z M271.223,409.809l-0.444-5.405
					l1.041-1.041l3.525,3.525l-3.525,3.517L271.223,409.809L271.223,409.809z M271.546,413.835l-0.065-0.807l0.339-0.339
					l1.146,1.146H271.546z M272.966,411.551l3.517-3.525l3.525,3.525l-2.283,2.283h-2.485L272.966,411.551z M280.008,413.835
					l1.146-1.146l1.146,1.146H280.008z M284.574,413.835l-2.283-2.283l3.525-3.525l3.517,3.525l-2.275,2.283H284.574z
					 M289.334,413.835l1.146-1.146l1.146,1.146H289.334z M300.079,413.835h-1.42l1.146-1.146l0.339,0.339L300.079,413.835z
					 M300.41,409.809l-0.605,0.597l-3.525-3.517l3.525-3.525l1.041,1.041L300.41,409.809z M301.031,402.137l-0.016,0.161
					l-0.073-0.073L301.031,402.137L301.031,402.137z M301.233,399.66l-1.428,1.42l-3.525-3.517l3.525-3.525l1.742,1.742
					L301.233,399.66z M301.717,393.667l-0.774-0.775l0.912-0.904L301.717,393.667z M302.677,381.832l-0.258,3.211l-1.476-1.476
					L302.677,381.832L302.677,381.832z"/>
			</g>
			<g style="opacity:0.6;enable-background:new    ;">
				<path style="fill:#FFFFFF;" d="M301.047,374.136h-2.485h-6.841h-2.493h-6.832h-2.493h-6.833h-2.493h-3.864l0.282,3.469
					l0.202,2.476l0.524,6.446l0.299,3.703l0.395,4.929l0.169,2.114l0.056,0.629l0.202,2.485l0.274,3.404l0.17,2.114l0.177,2.146
					l0.202,2.485l0.153,1.88l0.169,2.114l0.073,0.92h4.517h3.816h5.51h3.816h5.51h3.816h4.525l0.073-0.92l0.169-2.106l0.153-1.896
					l0.202-2.485l0.178-2.138l0.169-2.114l0.274-3.412l0.202-2.477l0.049-0.629l0.169-2.114l0.403-4.929l0.299-3.695l0.516-6.454
					l0.202-2.476l0.282-3.469H301.047z M303.113,376.411L303.113,376.411l-0.662-0.662h0.718L303.113,376.411z M302.943,378.517
					l-0.064,0.839l-3.074,3.074l-3.525-3.525l3.154-3.154h0.742L302.943,378.517z M302.056,389.504l-2.251,2.251l-3.525-3.525
					l3.525-3.517l2.436,2.436L302.056,389.504z M269.384,387.148L269.384,387.148l2.436-2.436l3.525,3.517l-3.525,3.525
					l-2.243-2.251L269.384,387.148z M298.668,383.566l-3.525,3.526l-3.525-3.526l3.525-3.525L298.668,383.566z M293.125,375.749
					h4.034l-2.017,2.017L293.125,375.749z M293.997,388.229l-3.517,3.525l-3.525-3.525l3.525-3.517L293.997,388.229z
					 M282.291,392.892l3.525-3.517l3.517,3.517l-3.517,3.526L282.291,392.892z M284.671,397.555l-3.525,3.525l-3.517-3.517
					l3.525-3.525L284.671,397.555z M290.479,394.038l3.517,3.525l-3.517,3.517l-3.525-3.525L290.479,394.038z M285.817,387.092
					l-3.525-3.526l3.525-3.525l3.517,3.525L285.817,387.092z M284.671,388.229l-3.517,3.525l-3.525-3.525l3.525-3.517
					L284.671,388.229z M276.483,387.092l-3.517-3.526l3.517-3.525l3.525,3.525L276.483,387.092z M276.483,389.375l3.525,3.517
					l-3.525,3.526l-3.517-3.526L276.483,389.375z M280.008,402.226l-3.525,3.517l-3.517-3.517l3.517-3.525L280.008,402.226z
					 M281.146,403.363l3.525,3.525l-3.517,3.525l-3.525-3.525L281.146,403.363z M282.291,402.226l3.525-3.525l3.517,3.525
					l-3.517,3.517L282.291,402.226z M290.479,403.363l3.517,3.525l-3.517,3.525l-3.525-3.525L290.479,403.363z M295.142,408.026
					l3.525,3.525l-2.283,2.283H293.9l-2.283-2.283L295.142,408.026z M291.617,402.226l3.525-3.525l3.525,3.525l-3.525,3.517
					L291.617,402.226z M291.617,392.892l3.525-3.517l3.525,3.517l-3.525,3.526L291.617,392.892z M293.997,378.904l-3.517,3.525
					l-3.525-3.525l3.154-3.154h0.742L293.997,378.904z M285.817,377.766l-2.017-2.017h4.026L285.817,377.766z M284.671,378.904
					l-3.517,3.525l-3.525-3.525l3.154-3.154h0.742L284.671,378.904z M278.5,375.749l-2.017,2.017l-2.009-2.017H278.5z
					 M272.191,375.749l3.154,3.154l-3.525,3.525l-3.065-3.074l-0.065-0.839l2.759-2.767H272.191z M269.174,375.749l-0.654,0.654l0,0
					l-0.056-0.654H269.174z M268.956,381.84l1.727,1.726l-1.468,1.468L268.956,381.84z M269.916,393.659l-0.137-1.67l0,0
					l0.904,0.904L269.916,393.659L269.916,393.659z M270.086,395.78l1.734-1.742l3.525,3.525l-3.525,3.517l-1.42-1.42
					L270.086,395.78z M270.61,402.298l-0.008-0.153l0.081,0.081L270.61,402.298L270.61,402.298z M271.223,409.809l-0.444-5.405
					l1.041-1.041l3.525,3.525l-3.525,3.517L271.223,409.809L271.223,409.809z M271.546,413.835l-0.065-0.807l0.339-0.339
					l1.146,1.146H271.546z M272.966,411.551l3.517-3.525l3.525,3.525l-2.283,2.283h-2.485L272.966,411.551z M280.008,413.835
					l1.146-1.146l1.146,1.146H280.008z M284.574,413.835l-2.283-2.283l3.525-3.525l3.517,3.525l-2.275,2.283H284.574z
					 M289.334,413.835l1.146-1.146l1.146,1.146H289.334z M300.079,413.835h-1.42l1.146-1.146l0.339,0.339L300.079,413.835z
					 M300.41,409.809l-0.605,0.597l-3.525-3.517l3.525-3.525l1.041,1.041L300.41,409.809z M301.031,402.137l-0.016,0.161
					l-0.073-0.073L301.031,402.137L301.031,402.137z M301.233,399.66l-1.428,1.42l-3.525-3.517l3.525-3.525l1.742,1.742
					L301.233,399.66z M301.717,393.667l-0.774-0.775l0.912-0.904L301.717,393.667z M302.677,381.832l-0.258,3.211l-1.476-1.476
					L302.677,381.832L302.677,381.832z"/>
			</g>
		</g>
		<path style="fill:#407BFF;" d="M266.159,377.188h39.31c0.908,0,1.643-0.736,1.643-1.643v-1.205c0-0.908-0.736-1.643-1.643-1.643
			h-39.31c-0.908,0-1.643,0.736-1.643,1.643l0,1.205C264.515,376.453,265.251,377.188,266.159,377.188z"/>
		<path style="fill:#407BFF;" d="M302.397,417.524H269.23c-0.908,0-1.643-0.736-1.643-1.643v-1.205c0-0.908,0.736-1.643,1.643-1.643
			h33.167c0.908,0,1.643,0.736,1.643,1.643v1.205C304.04,416.788,303.305,417.524,302.397,417.524z"/>
	</g>
</g>
<g id="Character_2">
	<g>
		<g>
			<g>
				<g>
					<path style="fill:#263238;" d="M388.926,329.964h-17.872c-0.517,0-0.966-0.353-1.088-0.855l-2.528-10.416l-7.934,0l3.246,12.7
						c0.494,1.932,2.235,3.284,4.229,3.284h21.947V329.964z"/>
					<path style="opacity:0.4;fill:#FFFFFF;enable-background:new    ;" d="M388.926,329.964h-17.872
						c-0.517,0-0.966-0.353-1.088-0.855l-2.528-10.416l-7.934,0l3.246,12.7c0.494,1.932,2.235,3.284,4.229,3.284h21.947V329.964z"/>
				</g>
			</g>
			<g>
				<g>
					
						<rect x="353.928" y="330.668" transform="matrix(0.1357 -0.9908 0.9908 0.1357 5.7303 672.6695)" style="fill:#263238;" width="68.935" height="4.766"/>
				</g>
				<g>
					
						<rect x="383.475" y="330.668" transform="matrix(0.1357 -0.9908 0.9908 0.1357 31.2687 701.9435)" style="fill:#263238;" width="68.935" height="4.766"/>
				</g>
				<g style="opacity:0.3;enable-background:new    ;">
					
						<rect x="353.928" y="330.668" transform="matrix(0.1357 -0.9908 0.9908 0.1357 5.7303 672.6695)" style="fill:#FFFFFF;" width="68.935" height="4.766"/>
				</g>
				<g style="opacity:0.4;enable-background:new    ;">
					
						<rect x="383.475" y="330.668" transform="matrix(0.1357 -0.9908 0.9908 0.1357 31.2687 701.9435)" style="fill:#FFFFFF;" width="68.935" height="4.766"/>
				</g>
			</g>
			<polygon style="fill:#263238;" points="387.153,417.164 380.51,417.164 379.693,382.04 379.349,367.2 388.309,367.2 
				387.965,382.04 			"/>
			<polygon style="opacity:0.4;fill:#FFFFFF;enable-background:new    ;" points="387.153,417.164 380.51,417.164 379.693,382.04 
				379.349,367.2 388.309,367.2 387.965,382.04 			"/>
			<polygon style="opacity:0.2;enable-background:new    ;" points="379.349,367.2 379.693,382.45 387.966,382.45 388.309,367.2 			
				"/>
			<g>
				<g>
					<polygon style="fill:#263238;" points="353.223,417.164 356.111,368.248 363.898,368.248 359.855,417.164 					"/>
					<polygon style="opacity:0.5;fill:#FFFFFF;enable-background:new    ;" points="359.861,417.164 353.226,417.164 
						355.679,375.492 356.108,368.153 363.895,368.153 363.294,375.492 					"/>
					<polygon style="opacity:0.2;enable-background:new    ;" points="363.895,368.153 363.295,375.778 355.679,375.778 
						356.108,368.153 					"/>
				</g>
				<g>
					<polygon style="fill:#263238;" points="407.808,417.164 403.764,368.248 411.551,368.248 414.439,417.164 					"/>
					<polygon style="opacity:0.5;fill:#FFFFFF;enable-background:new    ;" points="407.802,417.164 404.368,375.492 
						403.768,368.153 411.555,368.153 411.984,375.492 414.437,417.164 					"/>
					<polygon style="opacity:0.2;enable-background:new    ;" points="403.767,368.153 404.368,375.778 411.984,375.778 
						411.555,368.153 					"/>
				</g>
			</g>
			<path style="fill:#263238;" d="M356.841,359.892h53.98c2.707,0,4.902,2.195,4.902,4.902v6.239h-63.785v-6.239
				C351.939,362.087,354.134,359.892,356.841,359.892z"/>
			<g>
				<path style="fill:#263238;" d="M350.855,365.463h65.953c1.089,0,1.972,0.883,1.972,1.972v1.627c0,1.089-0.883,1.972-1.972,1.972
					h-65.953c-1.089,0-1.972-0.883-1.972-1.972v-1.627C348.883,366.346,349.766,365.463,350.855,365.463z"/>
				<path style="opacity:0.6;fill:#FFFFFF;enable-background:new    ;" d="M350.855,365.463h65.953c1.089,0,1.972,0.883,1.972,1.972
					v1.627c0,1.089-0.883,1.972-1.972,1.972h-65.953c-1.089,0-1.972-0.883-1.972-1.972v-1.627
					C348.883,366.346,349.766,365.463,350.855,365.463z"/>
			</g>
			<g>
				<path style="fill:#263238;" d="M387.493,321.725h35.628c1.94,0,3.578-1.442,3.825-3.366l2.527-19.732
					c0.228-1.782-1.16-3.359-2.956-3.359h-35.628c-1.94,0-3.578,1.442-3.825,3.366l-2.527,19.732
					C384.308,320.148,385.696,321.725,387.493,321.725z"/>
				<path style="opacity:0.6;fill:#FFFFFF;enable-background:new    ;" d="M387.493,321.725h35.628c1.94,0,3.578-1.442,3.825-3.366
					l2.527-19.732c0.228-1.782-1.16-3.359-2.956-3.359h-35.628c-1.94,0-3.578,1.442-3.825,3.366l-2.527,19.732
					C384.308,320.148,385.696,321.725,387.493,321.725z"/>
			</g>
		</g>
		<g id="_x3C_Group_x3E__74_">
			<g>
				<path style="fill:#E9B376;" d="M364.914,288.213c-2.01-2.86-3.876-5.743-5.642-8.761c-0.893-1.502-1.737-3.039-2.571-4.625
					c-0.419-0.793-0.81-1.622-1.204-2.479c-0.388-0.874-0.783-1.863-1.073-2.773c-1.114-3.573-1.77-6.912-2.4-10.347
					c-0.62-3.413-1.089-6.826-1.432-10.286c-0.111-1.121,0.707-2.119,1.828-2.23c0.951-0.094,1.815,0.481,2.122,1.343l0.006,0.018
					c1.144,3.211,2.256,6.449,3.325,9.659c0.552,1.601,1.072,3.207,1.642,4.775c0.538,1.572,1.116,3.147,1.715,4.551
					c0.289,0.698,0.583,1.275,0.956,1.931c0.383,0.665,0.806,1.338,1.23,2.032c0.857,1.384,1.786,2.769,2.697,4.17
					c1.852,2.78,3.734,5.614,5.555,8.415l0.019,0.029c1.231,1.893,0.694,4.425-1.199,5.656
					C368.639,290.493,366.175,290.001,364.914,288.213z"/>
			</g>
			<g>
				<path style="fill:#407BFF;" d="M332.752,365.463c-1.901,3.917,41.101,5.571,41.101,5.571s-2.923-12.168-15.884-14.053
					C345.008,355.095,335.956,358.862,332.752,365.463z"/>
				<path style="opacity:0.2;enable-background:new    ;" d="M332.752,365.463c-1.901,3.917,41.101,5.571,41.101,5.571
					s-2.923-12.168-15.884-14.053C345.008,355.095,335.956,358.862,332.752,365.463z"/>
			</g>
			<path style="fill:#EBB376;" d="M346.153,411.997l6.739-0.719c0,0-5.517-39.332-2.8-43.24c2.297-3.288,13.191-3.974,28.537-4.747
				c2.859-0.143,5.881-0.286,9.026-0.448c20.006-1.048-21.827-21.35-21.827-21.35s-23.072,6.647-30.058,15.864
				C329.346,365.831,346.153,411.997,346.153,411.997z"/>
			<path style="opacity:0.1;enable-background:new    ;" d="M346.153,411.997l6.739-0.719c0,0-5.517-39.332-2.8-43.24
				c2.297-3.288,13.191-3.974,28.537-4.747c2.859-0.143,5.881-0.286,9.026-0.448c20.006-1.048-21.827-21.35-21.827-21.35
				s-23.072,6.647-30.058,15.864C329.346,365.831,346.153,411.997,346.153,411.997z"/>
			<path style="fill:#263238;" d="M344.726,408.685l8.578-0.535c0.298-0.032,0.566,0.184,0.598,0.482
				c0,0.003,0.001,0.006,0.001,0.009l0.842,6.767c0.046,0.74-0.511,1.379-1.25,1.434c-2.996,0.138-4.434,0.055-8.21,0.26
				c-2.317,0.138-6.883,0.631-10.081,0.322c-3.197-0.31-2.806-3.462-1.425-3.612c3.274-0.373,7.611-2.779,9.66-4.604
				C343.798,408.895,344.251,408.711,344.726,408.685z"/>
			<path style="fill:#407BFF;" d="M340.637,409.869c-0.275-0.245-0.384-0.627-0.28-0.98c0.027-0.231,0.17-0.432,0.38-0.532
				c0.916-0.42,3.174,0.92,3.429,1.075c0.056,0.042,0.087,0.109,0.08,0.179c-0.007,0.07-0.058,0.127-0.127,0.142
				c-0.658,0.208-1.336,0.343-2.024,0.402C341.59,410.245,341.07,410.143,340.637,409.869z M340.888,408.713
				c-0.103,0.048-0.174,0.148-0.185,0.262c-0.058,0.224,0.005,0.461,0.167,0.626c0.383,0.329,1.389,0.309,2.739-0.045
				C342.686,409.048,341.376,408.487,340.888,408.713L340.888,408.713z"/>
			<path style="fill:#407BFF;" d="M343.983,409.77c-0.788-0.402-2.027-1.932-1.907-2.773c0.047-0.311,0.3-0.549,0.613-0.579
				c0.276-0.051,0.56,0.022,0.777,0.2c0.811,0.7,0.775,2.935,0.779,3.003c-0.007,0.059-0.039,0.113-0.089,0.145
				c-0.025,0.008-0.052,0.005-0.076-0.006C344.051,409.777,344.016,409.781,343.983,409.77z M342.753,406.796
				c-0.253,0.046-0.311,0.174-0.32,0.279c-0.048,0.56,0.753,1.719,1.446,2.237c-0.025-0.72-0.158-1.974-0.649-2.389
				c-0.105-0.099-0.246-0.149-0.39-0.138L342.753,406.796z"/>
			<path style="fill:#EBB376;" d="M358.56,358.112c1.468-5.517,11.364-14.063,19.516-15.372l11.78,20.156
				c-12.348,0.506-16.149,4.111-16.427,5.257c-1.328,5.475,2.862,43.844,2.862,43.844h-7.152
				C369.14,411.997,354.938,371.729,358.56,358.112z"/>
			<path style="fill:#407BFF;" d="M372.133,333.791c0,0-21.677,8.861-31.452,17.156c-8.031,6.816-7.93,14.515-7.93,14.515
				s6.223-5.571,16.131-3.58c12.662,2.544,24.97,9.151,24.97,9.151s5.334-6.253,21.58-8.028c16.246-1.775,16.32-17.31,8.211-29.955
				L372.133,333.791z"/>
			<path style="fill:#263238;" d="M368.554,408.685l8.578-0.535c0.298-0.032,0.566,0.184,0.598,0.482
				c0,0.003,0.001,0.006,0.001,0.009l0.842,6.767c0.046,0.74-0.511,1.379-1.25,1.434c-2.996,0.138-4.434,0.055-8.21,0.26
				c-2.317,0.138-6.883,0.631-10.081,0.322c-3.197-0.31-2.806-3.462-1.425-3.612c3.274-0.373,7.611-2.779,9.66-4.604
				C367.626,408.895,368.079,408.711,368.554,408.685z"/>
			<path style="fill:#407BFF;" d="M364.465,409.869c-0.275-0.245-0.384-0.627-0.28-0.98c0.027-0.231,0.17-0.432,0.38-0.532
				c0.916-0.42,3.174,0.92,3.429,1.075c0.056,0.042,0.087,0.109,0.081,0.179c-0.007,0.07-0.058,0.127-0.127,0.142
				c-0.658,0.208-1.336,0.343-2.024,0.402C365.419,410.245,364.898,410.143,364.465,409.869z M364.716,408.713
				c-0.103,0.048-0.174,0.148-0.185,0.262c-0.058,0.224,0.005,0.461,0.167,0.626c0.383,0.329,1.389,0.309,2.74-0.045
				C366.515,409.048,365.204,408.487,364.716,408.713L364.716,408.713z"/>
			<path style="fill:#407BFF;" d="M367.812,409.77c-0.788-0.402-2.027-1.932-1.907-2.773c0.048-0.311,0.301-0.549,0.614-0.579
				c0.276-0.051,0.56,0.022,0.777,0.2c0.811,0.7,0.775,2.935,0.778,3.003c-0.007,0.059-0.039,0.113-0.089,0.145
				c-0.025,0.008-0.052,0.005-0.076-0.006C367.88,409.777,367.844,409.781,367.812,409.77z M366.582,406.796
				c-0.253,0.046-0.311,0.174-0.32,0.279c-0.048,0.56,0.753,1.719,1.446,2.237c-0.025-0.72-0.158-1.974-0.649-2.389
				c-0.105-0.099-0.246-0.149-0.39-0.138L366.582,406.796z"/>
			<g>
				<path style="fill:#407BFF;" d="M358.657,282.423l8.517-6.551c0,0,0.05,0.038,0.15,0.114c0.05,0.038,0.117,0.089,0.193,0.141
					c-0.011,0.008-0.002,0.009-0.002,0.009c0.009,0.002,0.017,0.013,0.035,0.016c0,0-0.002,0.009,0.008,0.011
					c0.25,0.189,0.616,0.477,1.053,0.844c0.132,0.11,0.28,0.233,0.431,0.347c0.032,0.034,0.065,0.06,0.106,0.096
					c0.147,0.132,0.295,0.255,0.452,0.389c0.197,0.17,0.392,0.349,0.597,0.53c1.11,0.997,7.012,5.944,7.95,7.148
					c0.159,0.22,0.32,0.431,0.461,0.648c0.316,0.449,0.576,0.898,0.764,1.323c0.034,0.073,0.059,0.144,0.074,0.214
					c0.021,0.042,0.04,0.093,0.05,0.143c0.031,0.091,0.058,0.201,0.076,0.309c0.016,0.07,0.03,0.148,0.044,0.227
					c0.008,0.059,0.016,0.117,0.023,0.185c0.014,0.127,0.029,0.253,0.042,0.389c0.002,0.143,0.004,0.287,0.013,0.441
					c0.002,0.143-0.007,0.294-0.007,0.447c0.002,0.038-0.006,0.084-0.004,0.123l-0.002,0.009c-0.002,0.114-0.014,0.226-0.016,0.34
					c-0.011,0.16-0.023,0.329-0.045,0.497c-0.022,0.168-0.034,0.337-0.056,0.504c-0.023,0.177-0.047,0.353-0.079,0.528
					c-0.784,4.875-8.304,7.496-10.501,6.297c-4.38-2.416-8.646-11.746-9.931-14.768
					C358.792,282.773,358.657,282.423,358.657,282.423z"/>
				<path style="opacity:0.6;fill:#FFFFFF;" d="M379.691,289.4c0,0.141-0.009,0.29-0.009,0.44c0.009,0.037,0,0.084,0,0.122v0.009
					c-0.009,0.122-0.019,0.234-0.019,0.347c-0.009,0.159-0.019,0.328-0.047,0.496c-0.019,0.169-0.028,0.337-0.056,0.506
					c-0.019,0.169-0.047,0.346-0.075,0.525c-0.646,4.037-5.92,6.528-8.964,6.585c-0.628,0.009-1.161-0.084-1.536-0.29
					c-1.321-0.73-2.632-2.07-3.84-3.69c-0.169-0.215-0.328-0.44-0.487-0.665c-2.613-3.69-4.758-8.42-5.61-10.406
					c-0.253-0.609-0.393-0.955-0.393-0.955l8.523-6.547c0,0,0.047,0.037,0.15,0.112c0.047,0.037,0.112,0.084,0.187,0.14
					c0.009,0.009,0.019,0.009,0.038,0.028c0,0,0,0.009,0.009,0.009c0.244,0.187,0.609,0.478,1.049,0.843
					c0.131,0.103,0.281,0.225,0.431,0.346c0.028,0.037,0.066,0.056,0.103,0.094c0.15,0.122,0.3,0.243,0.459,0.393
					c0.197,0.169,0.384,0.346,0.59,0.525c1.115,1.002,7.016,5.948,7.952,7.146c0.159,0.225,0.318,0.431,0.459,0.656
					c0.318,0.45,0.581,0.899,0.768,1.321c0.028,0.075,0.056,0.141,0.075,0.216c0.019,0.038,0.037,0.094,0.047,0.141
					c0.028,0.094,0.056,0.197,0.075,0.309c0.019,0.066,0.028,0.15,0.047,0.225c0.009,0.065,0.009,0.122,0.019,0.187
					c0.019,0.131,0.028,0.253,0.047,0.393C379.682,289.1,379.682,289.241,379.691,289.4z"/>
				<polygon style="fill:#407BFF;" points="357.927,281.945 366.509,274.482 367.738,275.349 368.168,275.648 367.558,276.164 
					367.491,276.218 359.052,283.374 358.824,283.569 				"/>
				<path style="opacity:0.2;enable-background:new    ;" d="M370.521,298.429c-0.628,0.009-1.161-0.084-1.536-0.29
					c-1.321-0.73-2.632-2.07-3.84-3.69c1.705-2.491,4.824-3.999,4.824-3.999C372.142,293.081,371.346,295.825,370.521,298.429z"/>
			</g>
			<g>
				<path style="fill:#407BFF;" d="M405.582,336.15c0,0-0.55-31.56-3.545-38.035c-2.995-6.474-7.832-15.324-28.776-10.203
					c0,0-7.94,2.237-6.584,12.027c1.355,9.79,1.8,35.19,1.8,35.19L405.582,336.15z"/>
				<path style="opacity:0.6;fill:#FFFFFF;" d="M366.667,299.936c0.403,2.885,0.721,7.109,0.974,11.642
					c0.056,1.049,0.112,2.126,0.169,3.203c0.122,2.491,0.225,5.002,0.309,7.362c0.019,0.412,0.028,0.824,0.047,1.227
					c0.216,6.594,0.309,11.755,0.309,11.755l37.107,1.03c0,0-0.55-31.574-3.548-38.036c-2.997-6.472-7.83-15.333-28.773-10.2
					C373.261,287.919,365.319,290.148,366.667,299.936z"/>
			</g>
			<path style="fill:#407BFF;" d="M376.438,293.778l-2.423-3.928l-3.338,3.928c0,0,0.943-10.425,13.065-10.665
				c4.969-0.099,6.144,4.107,6.144,4.107c-2.125,3.431-7.757,7.164-7.757,7.164l-2.238-3.396L376.438,293.778z"/>
			
				<line style="fill:none;stroke:#263238;stroke-width:2.0077;stroke-miterlimit:10;" x1="354.068" y1="299.802" x2="348.17" y2="315.072"/>
			<g>
				<path style="fill:#EBB376;" d="M385.875,274.28c0,0-0.558,3.636-0.292,7.154c0.114,1.697,0.422,3.349,1.068,4.656
					c0,0-3.236,3.135-6.158,3.802l-3.231,2.399l0.211-3.273c0,0,0.025-0.167,0.038-0.459c0.078-1.267-0.026-5.241-3.616-6.731
					C368.951,279.764,385.875,274.28,385.875,274.28z"/>
				<path style="opacity:0.2;enable-background:new    ;" d="M385.875,274.28c0,0-0.558,3.636-0.292,7.154
					c-2.051,3.058-4.686,5.981-8.071,7.125c0.078-1.267-0.026-5.241-3.616-6.731C368.951,279.764,385.875,274.28,385.875,274.28z"/>
			</g>
			<path style="fill:#EBB376;" d="M347.618,309.878l1.855-0.783c0.698-0.294,1.494-0.234,2.139,0.163l3.013,1.855
				c1.205,0.741,1.976,2.02,2.069,3.432l0.058,0.874c-2.987,1.509-7.328,0.94-7.328,0.94l-1.255-0.025
				c-1.118-0.023-1.974-0.873-1.966-1.954l0.018-2.488C346.226,311.032,346.783,310.231,347.618,309.878z"/>
			<path style="opacity:0.2;enable-background:new    ;" d="M367.642,311.579c0.056,1.049,0.112,2.126,0.169,3.203
				c0.122,2.491,0.225,5.002,0.309,7.362c0.019,0.412,0.028,0.824,0.047,1.227c26.638-1.218,30.806-20.896,30.806-20.896
				s-6.912-7.212-10.79-6.435c-3.878,0.787-12.673,11.399-12.673,11.399l0.366,1.471
				C374.863,310.014,369.927,311.12,367.642,311.579z"/>
			<g>
				<path style="fill:#E9B376;" d="M395.553,304.61c-1.346,1.562-2.656,2.829-4.053,4.163c-1.396,1.298-2.847,2.543-4.368,3.718
					c-1.512,1.184-3.114,2.284-4.776,3.315c-1.666,1.033-3.444,1.944-5.298,2.752l-0.301,0.131
					c-0.141,0.061-0.294,0.102-0.439,0.123c-0.597,0.08-1.263,0.193-1.801,0.213c-0.53,0.016-1.093,0.053-1.593,0.031
					c-1.017-0.022-1.992-0.089-2.945-0.175c-1.901-0.181-3.744-0.472-5.564-0.789c-1.817-0.339-3.614-0.715-5.395-1.144
					c-1.781-0.452-3.539-0.896-5.312-1.454c-1.075-0.338-1.673-1.484-1.335-2.559c0.284-0.902,1.137-1.468,2.039-1.427l0.015,0.001
					l5.342,0.247l5.307,0.22c1.755,0.068,3.498,0.078,5.189,0.064l1.251-0.035l1.197-0.083c0.4-0.028,0.732-0.094,1.099-0.129
					c0.359-0.044,0.573-0.132,0.866-0.177l-0.74,0.254c1.402-0.767,2.781-1.633,4.139-2.586c1.345-0.977,2.677-1.999,3.972-3.095
					c1.289-1.103,2.564-2.238,3.804-3.417c1.234-1.147,2.485-2.439,3.563-3.562l0.092-0.096c1.563-1.629,4.15-1.683,5.779-0.12
					C396.861,300.501,396.957,302.976,395.553,304.61z"/>
			</g>
			<g>
				<path style="fill:#407BFF;" d="M396.94,291.389c-5.966-5.505-18.076,15.021-18.076,15.021l7.327,9.03
					C386.19,315.44,409.869,303.319,396.94,291.389z"/>
				<path style="opacity:0.6;fill:#FFFFFF;" d="M396.94,291.389c-5.966-5.505-18.076,15.021-18.076,15.021l7.327,9.03
					C386.19,315.44,409.869,303.319,396.94,291.389z"/>
				<polygon style="fill:#407BFF;" points="387.723,315.845 378.863,305.067 377.217,307.462 384.883,317.631 				"/>
			</g>
			<g>
				<path style="fill:#263238;" d="M392.56,258.273c0,0,3.521-4.453,11.001-2.993c7.48,1.459,10.729,10.345,4.109,19.063
					c-6.62,8.718-2.614,11.05-4.174,13.539c-1.56,2.49-4.103,1.94-4.103,1.94s2.926-0.623-0.533-3.676
					c-3.459-3.053-3.344-10.392-1.603-14.034c1.741-3.643-1.214-5.957-3.834-4.791L392.56,258.273z"/>
				<path style="fill:#263238;" d="M372.132,254.395c0,0-5.046,3.191-3.877,9.085c1.169,5.894,10.378-4.67,10.378-4.67
					L372.132,254.395z"/>
				<path style="fill:#EBB376;" d="M392.766,269.012c-3.299,7.267-4.811,11.697-10.463,13.926c-8.516,3.371-17.591-3.9-16.812-12.09
					c0.665-7.382,5.965-18.004,15.281-17.905C390.087,253.04,396.061,261.754,392.766,269.012z"/>
				<path style="fill:#263238;" d="M377.863,262.708c-0.036-0.079-0.049-0.167-0.039-0.253c0.066-0.218,0.292-0.346,0.513-0.287
					c1.294,0.321,2.347,1.256,2.819,2.502c0.069,0.217-0.051,0.449-0.268,0.518l0,0c-0.216,0.058-0.441-0.058-0.518-0.269l0,0
					c-0.397-0.985-1.251-1.713-2.287-1.947C377.977,262.918,377.898,262.822,377.863,262.708z"/>
				<path style="fill:#263238;" d="M368.668,260.672c-0.076-0.043-0.138-0.106-0.18-0.182c-0.076-0.215,0.033-0.451,0.245-0.534
					c1.234-0.503,2.636-0.368,3.752,0.361c0.184,0.135,0.223,0.393,0.088,0.577v0c-0.141,0.174-0.391,0.213-0.577,0.088l0,0
					c-0.901-0.563-2.02-0.647-2.995-0.226C368.884,260.774,368.764,260.744,368.668,260.672z"/>
				<path style="fill:#D58745;" d="M371.506,267.9l-2.409,0.953c0,0,0.276,0.946,2.091,1.699L371.506,267.9z"/>
				<g>
					<path style="fill:#263238;" d="M369.67,272.831c0.318,1.243,0.446,3.485,0.446,3.485c0.205,0.025,0.411,0.05,0.617,0.064
						c2.793,0.269,4.177-0.529,4.865-1.495c0.374-0.53,0.535-1.118,0.601-1.604c0.082-0.561,0.013-0.98,0.013-0.98
						c-1.566,0.742-4.189,0.692-5.589,0.607C370.037,272.879,369.67,272.831,369.67,272.831z"/>
					<path style="fill:#FFFFFF;" d="M370.624,272.908l0.158,1.024c2.631,0.247,4.517,0.067,5.417-0.651
						c0.082-0.561,0.013-0.98,0.013-0.98C374.646,273.043,372.023,272.994,370.624,272.908z"/>
					<path style="fill:#DE5753;" d="M370.733,276.381c2.793,0.269,4.177-0.529,4.865-1.495c-0.955-0.055-2.113-0.015-3.16,0.316
						C371.636,275.452,371.104,275.905,370.733,276.381z"/>
				</g>
				<path style="fill:#263238;" d="M384.792,274.261c0,0-1.584-2.785-0.9-6.588c0,0-6.718-4.29-8.158-9.259
					c0,0,0.4,4.711,3.775,8.259c0,0-9.645-5.585-8.307-11.546c1.339-5.961,9.744-6.035,18.033-1.723
					c8.289,4.312,8.496,12.36,5.954,17.355c0,0-2.08,10.696-9.702,10.379C385.487,281.138,388.029,276.117,384.792,274.261z"/>
				<path style="fill:#EBB376;" d="M384.713,271.85c0,0,2.982-3.795,4.833-1.859c1.851,1.937-0.486,8.967-3.771,8.092
					C382.491,277.209,382.616,273.756,384.713,271.85z"/>
				<g>
					<path style="fill:#263238;" d="M375.765,267.558c-0.168,0.795,0.126,1.531,0.656,1.643c0.53,0.112,1.096-0.442,1.264-1.238
						c0.168-0.795-0.126-1.531-0.656-1.643C376.499,266.209,375.933,266.763,375.765,267.558z"/>
					<path style="fill:#263238;" d="M377.242,266.405l-1.587-1.043C375.656,265.362,376.21,266.999,377.242,266.405z"/>
				</g>
				<g>
					<path style="fill:#263238;" d="M368.494,265.181c-0.168,0.795,0.126,1.531,0.656,1.643c0.53,0.112,1.096-0.442,1.264-1.238
						c0.168-0.795-0.126-1.531-0.656-1.643C369.228,263.832,368.662,264.386,368.494,265.181z"/>
					<path style="fill:#263238;" d="M369.971,264.029l-1.587-1.043C368.384,262.986,368.938,264.623,369.971,264.029z"/>
				</g>
			</g>
		</g>
		<g>
			<path style="fill:#EBB376;" d="M355.607,251.23l0.751-7.661l-6.717,0.422c0,0-1.278,5.281,2.4,7.844L355.607,251.23z"/>
			<polygon style="fill:#EBB376;" points="354.27,238.503 349.339,240.016 349.641,243.991 356.358,243.569 			"/>
		</g>
		<g>
			<path style="fill:#407BFF;" d="M334.58,314.058c2.347-0.078,8.214,0.354,8.214,0.354l2.717-1.01c0,0,13.71,2.138,15.254,2.037
				c1.544-0.101,5.748,1.536,5.748,1.536l-30.265,1.328L334.58,314.058z"/>
			<path style="opacity:0.9;fill:#FFFFFF;" d="M334.58,314.058c2.347-0.078,8.214,0.354,8.214,0.354l2.717-1.01
				c0,0,13.71,2.138,15.254,2.037c1.544-0.101,5.748,1.536,5.748,1.536l-30.265,1.328L334.58,314.058z"/>
			<path style="fill:#407BFF;" d="M328.004,316.975c0,0,5.28-5.011,10.19-1.904c0,0,6.559-3.756,13.284,0l8.953,1.586
				L328.004,316.975z"/>
			<path style="opacity:0.7;fill:#FFFFFF;" d="M328.004,316.975c0,0,5.28-5.011,10.19-1.904c0,0,6.559-3.756,13.284,0l8.953,1.586
				L328.004,316.975z"/>
			<path style="fill:#263238;" d="M315.985,320.726h66.262c0.776,0,1.404-0.629,1.404-1.405v-1.257c0-0.776-0.629-1.405-1.404-1.405
				h-66.262c-0.776,0-1.404,0.629-1.404,1.405v1.257C314.581,320.097,315.21,320.726,315.985,320.726z"/>
			<path style="opacity:0.6;fill:#FFFFFF;enable-background:new    ;" d="M314.578,318.021v1.344c0,0.753,0.61,1.363,1.372,1.363
				h66.338c0.753,0,1.363-0.61,1.363-1.363v-1.344c0-0.753-0.61-1.363-1.363-1.363h-66.338
				C315.188,316.658,314.578,317.268,314.578,318.021z"/>
			<path style="opacity:0.3;fill:#FFFFFF;enable-background:new    ;" d="M314.578,318.021v1.344c0,0.753,0.61,1.363,1.372,1.363
				h32.025c0.753,0,1.363-0.61,1.363-1.363v-1.344c0-0.753-0.61-1.363-1.363-1.363h-32.025
				C315.188,316.658,314.578,317.268,314.578,318.021z"/>
		</g>
	</g>
</g>
<g id="Character_1">
	<g>
		<g>
			<polygon style="fill:#EBB376;" points="160.265,395.419 146.233,395.556 150.898,412.372 162.628,412.277 			"/>
			<polygon style="opacity:0.2;" points="160.263,395.425 146.226,395.561 148.841,404.978 161.589,404.866 			"/>
		</g>
		<path style="fill:#263238;" d="M124.388,329.942c-7.914-21.584-19.601-53.871-15.577-63.796l43.519-0.996
			c0,0,2.654,47.254,4.358,67.168c1.774,20.706,5.557,69.654,5.557,69.654l-15.202,0.04
			C147.043,402.012,126.404,354.573,124.388,329.942z"/>
		<path style="fill:#263238;" d="M148.906,417.511h3.059l0.829-1.241l1.606,1.254l18.464,0c0.362-1.835-0.788-4.229-0.788-4.229
			s-5.522-0.502-7.645-3.255c-0.164-0.212-0.42-0.327-0.682-0.272c-1.839,0.385-9.142,1.766-13.162,0.319
			c-0.436-0.157-0.896,0.139-0.903,0.602C149.634,413.868,148.906,417.511,148.906,417.511z"/>
		<g>
			<polygon style="fill:#EBB376;" points="107.728,395.401 93.666,395.537 94.665,412.372 106.415,412.277 			"/>
			<polygon style="opacity:0.2;" points="107.725,395.406 93.658,395.542 94.22,404.97 106.992,404.858 			"/>
		</g>
		<path style="fill:#263238;" d="M86.126,329.849c-3.208-21.608-7.856-53.931-1.668-63.867l43.737-0.997
			c0,0-7.648,47.307-10.286,67.243c-2.74,20.729-9.629,69.732-9.629,69.732l-15.211,0.041
			C93.068,402.001,82.772,354.508,86.126,329.849z"/>
		<g>
			<g>
				<path style="fill:#407BFF;" d="M144.76,192.753c2.495,1.574,4.322,3.462,5.668,5.202c1.364,1.748,2.323,3.39,3.138,4.919
					c1.626,3.044,2.673,5.724,3.76,8.182c2.051,4.908,3.951,8.965,6.39,12.174c0.596,0.816,1.229,1.573,1.907,2.275l0.253,0.265
					l0.126,0.134c0.044,0.046,0.026,0.033,0.041,0.053c0.024,0.048,0.037,0.111,0.143,0.204c0.063,0.085,0.182,0.187,0.318,0.295
					c0.111,0.104,0.289,0.227,0.446,0.352c1.373,1.022,3.581,2.047,5.825,3.031c4.559,1.953,9.794,3.678,14.799,5.58l0.255,0.097
					c2.688,1.022,4.038,4.029,3.016,6.716c-0.705,1.855-2.364,3.074-4.204,3.314c-3.065,0.393-5.937,0.543-8.929,0.515
					c-1.488,0.002-2.98-0.061-4.486-0.171c-1.509-0.092-3.029-0.248-4.57-0.486c-3.111-0.454-6.23-1.107-9.828-2.572
					c-0.458-0.196-0.904-0.378-1.385-0.636c-0.467-0.234-0.945-0.487-1.451-0.8c-0.483-0.275-1.016-0.641-1.54-1.019l-0.368-0.269
					l-0.265-0.209l-0.529-0.421c-1.412-1.124-2.737-2.344-3.962-3.623c-2.464-2.559-4.493-5.373-6.234-8.141
					c-1.743-2.784-3.128-5.57-4.416-8.159c-1.224-2.589-2.373-5.014-3.362-6.87c-0.5-0.915-0.972-1.662-1.301-2.116
					c-0.343-0.455-0.486-0.578-0.322-0.522c-4.776-3.055-6.171-9.404-3.115-14.179C133.636,191.093,139.984,189.698,144.76,192.753z
					"/>
			</g>
		</g>
		<path style="fill:#EBB376;" d="M187.11,244.967l0.678-5.888c2.858-5.533,9.335-0.629,9.335-0.629l5.918,1.496
			c1.379,0.373,2.261,1.85,2.085,3.49l-0.442,4.12c-0.201,1.878-1.705,3.287-3.333,3.123l-5.509-0.763
			c-1.064-0.107-2.086-0.475-2.974-1.073L187.11,244.967z"/>
		<path style="fill:#407BFF;" d="M140.789,191.057c-11.233-3.587-26.907-6.794-39.633-7.792
			c-8.114-0.637-14.337,5.526-13.632,13.309c2.862,31.588-6.041,64.415-2.635,71.602c0,0,43.938,5.979,67.988,7.251
			c10.344-29.133,0.306-49.811-2.946-75.217C149.368,195.808,145.131,192.443,140.789,191.057z"/>
		<g>
			<path style="fill:#EBB376;" d="M135.089,191.465c-0.048-1.338-0.885-3.571-2.29-4.598c0.021-1.625,0.625-3.301,1.967-5.114
				l-14.238-10.492c-1.09,6.654-3.837,11.908-7.384,14.421c2.716,3.155,7.728,8.853,15.127,10.379
				C135.669,197.587,135.193,194.389,135.089,191.465z"/>
			<path style="opacity:0.2;" d="M134.375,182.305l-13.847-11.044c0,10.48,8.504,16.069,12.324,14.845
				C133.008,184.884,133.491,183.633,134.375,182.305z"/>
			<g>
				<path style="fill:#407BFF;" d="M128.714,196.147l-1.96-3.291l-4.918,1.118C121.837,193.974,123.404,197.076,128.714,196.147z"/>
				<path style="opacity:0.3;" d="M128.714,196.147l-1.96-3.291l-4.918,1.118C121.837,193.974,123.404,197.076,128.714,196.147z"/>
			</g>
			<path style="fill:#407BFF;" d="M116.171,181.742c0,0,2.925,8.872,10.584,11.115c-5.459,1.123-8.379,6.166-8.379,6.166
				s-8.967-4.111-6.435-15.164C113.805,182.43,116.171,181.742,116.171,181.742z"/>
			<g>
				<path style="fill:#407BFF;" d="M128.714,196.147l4.715-2.322l3.813,2.36C137.242,196.185,132.38,199.211,128.714,196.147z"/>
				<path style="opacity:0.3;" d="M128.714,196.147l4.715-2.322l3.813,2.36C137.242,196.185,132.38,199.211,128.714,196.147z"/>
			</g>
			<path style="fill:#407BFF;" d="M132.799,186.867c0,0,1.557,4.326,0.63,6.958c3.221,1.929,2.721,7.828,2.721,7.828
				s3.897-7.679-0.097-13.27C135.047,187.113,132.799,186.867,132.799,186.867z"/>
			<path style="opacity:0.7;fill:#FFFFFF;" d="M116.171,181.742c0,0,2.925,8.872,10.584,11.115
				c-5.459,1.123-8.379,6.166-8.379,6.166s-8.967-4.111-6.435-15.164C113.805,182.43,116.171,181.742,116.171,181.742z"/>
			<path style="opacity:0.7;fill:#FFFFFF;" d="M132.799,186.867c0,0,1.557,4.326,0.63,6.958c3.221,1.929,2.721,7.828,2.721,7.828
				s3.897-7.679-0.097-13.27C135.047,187.113,132.799,186.867,132.799,186.867z"/>
		</g>
		<path style="fill:#263238;" d="M92.673,417.511h3.059l0.829-1.241l1.606,1.254l18.464,0c0.362-1.835-0.788-4.229-0.788-4.229
			s-5.522-0.502-7.645-3.255c-0.164-0.212-0.42-0.327-0.682-0.272c-1.839,0.385-9.142,1.766-13.162,0.319
			c-0.436-0.157-0.895,0.139-0.903,0.602C93.401,413.868,92.673,417.511,92.673,417.511z"/>
		<g>
			<path style="fill:#263238;" d="M143.371,154.033c0,0,9.262,8.194,0.985,16.056C136.08,177.952,136.334,151.192,143.371,154.033z"
				/>
			<path style="fill:#EBB376;" d="M120.075,160.345c-1.104,8.533-1.66,14.363,2.821,19.146c8.904,9.503,15.986,6.393,19.775-1.509
				c3.41-7.113,4.643-19.872-3.467-25.229C131.214,147.475,121.179,151.811,120.075,160.345z"/>
			<path style="fill:#263238;" d="M135.396,165.615c-0.16,0.734,0.1,1.411,0.582,1.511c0.481,0.101,1.001-0.413,1.161-1.147
				c0.16-0.734-0.1-1.41-0.582-1.511C136.076,164.367,135.556,164.881,135.396,165.615z"/>
			<path style="fill:#263238;" d="M142.942,167.461c-0.16,0.734,0.1,1.41,0.582,1.511c0.481,0.1,1.001-0.413,1.161-1.147
				c0.16-0.734-0.1-1.411-0.582-1.511C143.622,166.213,143.102,166.727,142.942,167.461z"/>
			<path style="fill:#D58745;" d="M140.291,167.493l-1.395,6.16c0,0,0.998,0.475,2.144,0.568c0.659,0.054,1.096-0.697,0.743-1.257
				C140.55,171.01,140.291,167.493,140.291,167.493z"/>
			<path style="fill:#263238;" d="M131.946,162.669c-0.069-0.025-0.133-0.066-0.185-0.126c-0.159-0.183-0.138-0.462,0.048-0.621
				c1.858-1.601,3.826-1.068,3.909-1.044c0.235,0.066,0.369,0.31,0.301,0.544c-0.068,0.233-0.313,0.369-0.547,0.304l0,0
				c-0.065-0.017-1.603-0.417-3.086,0.861C132.26,162.695,132.091,162.721,131.946,162.669z"/>
			<path style="fill:#263238;" d="M146.307,166.098c-0.139-0.032-0.26-0.131-0.313-0.274c-0.673-1.82-2.217-2.198-2.283-2.213
				c-0.237-0.055-0.384-0.29-0.328-0.527c0.056-0.236,0.292-0.385,0.529-0.333c0.086,0.021,2.07,0.482,2.913,2.763
				c0.084,0.228-0.034,0.482-0.263,0.567C146.477,166.112,146.389,166.116,146.307,166.098z"/>
			<path style="fill:#263238;" d="M141.302,177.156c0,0-2.859-1.48-11.395-3.674c0.341,2.822,1.669,5.396,6.051,6.479
				C140.34,181.044,141.302,177.156,141.302,177.156z"/>
			<path style="fill:#A02724;" d="M134.449,177.423c2.115,0.522,3.515,1.395,4.443,2.464c-0.737,0.291-1.705,0.373-2.929,0.07
				c-2.114-0.522-3.509-1.381-4.433-2.461C132.267,177.205,133.225,177.12,134.449,177.423z"/>
			<path style="fill:#FFFFFF;" d="M140.934,176.984c-0.383,0.485-0.764,0.971-1.664,0.929c-1.81-0.336-6.231-2.011-7.389-2.581
				c-0.75-0.329-1.349-0.768-1.605-1.755C136.845,175.283,139.944,176.542,140.934,176.984z"/>
			<path style="fill:#263238;" d="M122.866,168.496c0,0,6.186-6.805,4.699-13.599c0,0,4.265,2.594,13.369,2.1
				c0,0-2.753,2.695-7.955,1.112c0,0,6.1,2.964,12.321,0.123c6.221-2.841-1.009-9.158-9.032-10.516
				c-8.023-1.359-13.772-1.217-14.431,2.736c0,0-8.693,0-6.012,15.657L122.866,168.496z"/>
			<path style="fill:#EBB376;" d="M114.729,168.631c0.826,2.342,2.665,4.077,4.53,4.92c2.806,1.268,4.699-1.126,4.33-4.014
				c-0.332-2.599-2.192-6.391-5.206-6.444C115.414,163.042,113.784,165.954,114.729,168.631z"/>
		</g>
		<g>
			<path style="fill:#407BFF;" d="M102.24,204.302l-0.872,0.623l-0.978,0.72l-1.983,1.479c-1.312,1.012-2.634,2.018-3.904,3.069
				c-2.567,2.073-4.991,4.253-7.218,6.446c-1.109,1.101-2.147,2.222-3.092,3.344c-0.963,1.109-1.823,2.223-2.551,3.307
				c-1.449,2.176-2.276,4.17-2.447,5.369l-0.632-3.383c-0.371-0.384-0.345,0.325,0.319,1.145c0.337,0.406,0.759,0.878,1.252,1.361
				c0.497,0.483,1.087,0.948,1.698,1.438c1.233,0.982,2.645,1.944,4.125,2.901c0.742,0.475,1.498,0.967,2.271,1.433l1.158,0.718
				c0.368,0.24,0.807,0.499,1.086,0.707l0.894,0.667c2.28,1.701,2.75,4.928,1.049,7.208c-0.99,1.328-2.526,2.042-4.064,2.071
				l-1.737,0.022l-1.644-0.05c-1.087-0.07-2.18-0.158-3.271-0.308c-2.185-0.291-4.377-0.771-6.63-1.478
				c-2.23-0.755-4.56-1.685-6.934-3.267c-1.189-0.802-2.41-1.765-3.609-3.016c-1.2-1.243-2.345-2.842-3.235-4.824
				c-0.385-0.858-0.584-1.752-0.613-2.637l-0.019-0.746c-0.085-3.047,0.421-5.888,1.176-8.42c0.749-2.549,1.811-4.778,2.927-6.852
				c2.26-4.125,4.924-7.543,7.721-10.653c2.785-3.119,5.76-5.877,8.819-8.458c1.543-1.277,3.092-2.528,4.705-3.701
				c0.805-0.589,1.612-1.178,2.445-1.745l1.268-0.847l1.402-0.902c4.765-3.066,11.113-1.689,14.179,3.076
				c2.97,4.616,1.77,10.718-2.64,13.882L102.24,204.302z"/>
		</g>
		<g>
			<path style="fill:#E0E0E0;" d="M126.814,224.186l-1.967-2.82l-11.177-1.996l-11.755-9.838l-7.863,8.704
				c0,0-6.015,11-5.434,11.433s14.86,8.165,14.86,8.165l9.71-1.212L126.814,224.186z"/>
			<polygon style="fill:#263238;" points="97.998,208.605 80.967,229.195 98.238,239.911 112.477,242.424 129.343,223.502 
				113.182,220.397 			"/>
			<polygon style="opacity:0.4;fill:#FFFFFF;enable-background:new    ;" points="113.182,220.397 98.237,239.914 80.967,229.2 
				97.997,208.607 			"/>
			<polygon style="opacity:0.2;fill:#FFFFFF;" points="113.182,220.397 98.238,239.911 112.477,242.424 129.343,223.502 			"/>
		</g>
		<path style="fill:#EBB376;" d="M88.54,236.427l-0.87,5.862c1.328,6.084,8.854,3.024,8.854,3.024l4.214-0.01
			c1.428-0.003,2.663-1.202,2.917-2.831l0.639-4.094c0.292-1.866-0.796-3.616-2.411-3.88l-3.629-0.592
			c-1.056-0.172-2.138-0.081-3.15,0.267L88.54,236.427z"/>
	</g>
</g>
</svg>
